<?xml version="1.0" encoding="UTF-8"?>
<svg version="1.1" xmlns="http://www.w3.org/2000/svg" width="500" height="500">
<path d="M0 0 C1.2210997 -0.0071553 2.4421994 -0.01431061 3.70030212 -0.02168274 C5.06092809 -0.02452315 6.42155433 -0.02723487 7.78218079 -0.02983093 C9.20952521 -0.03609479 10.63686799 -0.04274152 12.06420898 -0.04974365 C15.94872851 -0.06716329 19.83323572 -0.07770856 23.71778464 -0.08594918 C26.14506796 -0.09109852 28.57234745 -0.09717435 30.99962807 -0.10346031 C38.59487173 -0.12251721 46.19010564 -0.13674589 53.78536862 -0.14507228 C62.55082117 -0.15484009 71.31602089 -0.18114545 80.08138436 -0.22157317 C86.85685174 -0.25174953 93.63224672 -0.26654269 100.40777999 -0.26985329 C104.45406257 -0.27220254 108.50007519 -0.2811459 112.54628563 -0.30631447 C116.35568597 -0.32962627 120.16463925 -0.33381619 123.97409248 -0.32355309 C125.36925622 -0.32305832 126.76444218 -0.32936129 128.15953827 -0.34310913 C135.64941476 -0.41276317 141.15714438 -0.45535196 147.26387024 4.14717102 C147.26387024 5.46717102 147.26387024 6.78717102 147.26387024 8.14717102 C147.92773743 8.18455383 148.59160461 8.22193665 149.27558899 8.26045227 C155.42420826 8.71823268 159.25208126 9.56563761 164.01387024 13.64717102 C167.51179401 17.84467954 166.52794048 24.06643077 166.57637024 29.20967102 C166.60537415 30.20933899 166.63437805 31.20900696 166.66426086 32.2389679 C166.72495378 39.42407538 165.33095516 44.69069269 162.26387024 51.14717102 C161.6893414 52.48521221 161.11875381 53.8249556 160.55293274 55.16670227 C160.0001872 56.43187539 159.44547447 57.69619075 158.88887024 58.95967102 C158.58779358 59.6463385 158.28671692 60.33300598 157.97651672 61.04048157 C156.14324314 65.20455572 154.25537431 69.33885579 152.32637024 73.45967102 C149.84839309 78.78566991 147.53590192 84.16872554 145.26387024 89.58467102 C144.92251038 90.3941217 144.58115051 91.20357239 144.22944641 92.03755188 C142.65682546 95.77699538 141.1079865 99.52117594 139.63105774 103.29951477 C134.9944017 115.0115972 134.9944017 115.0115972 129.26387024 118.14717102 C120.99107404 121.19669796 113.3071108 121.46884892 104.57637024 121.27217102 C101.5985762 121.23516278 98.6207273 121.21420155 95.64277649 121.19404602 C94.80580231 121.1874295 93.96882813 121.18081299 93.10649109 121.17399597 C80.5184913 121.09484931 67.9312302 121.28275309 55.34477234 121.46253967 C52.47520091 121.50317397 49.60563967 121.53874389 46.73594666 121.56959534 C42.63569718 121.61371559 38.53578892 121.67278804 34.43574524 121.73310852 C33.21584396 121.74464966 31.99594269 121.7561908 30.73907471 121.76808167 C5.25474842 122.20048906 -20.53381589 129.37603485 -38.73612976 148.14717102 C-39.39612976 148.14717102 -40.05612976 148.14717102 -40.73612976 148.14717102 C-41.00425476 148.74529602 -41.27237976 149.34342102 -41.54862976 149.95967102 C-42.74185399 152.15771566 -43.98291847 153.39395973 -45.73612976 155.14717102 C-46.74618182 156.80776508 -47.7445956 158.475454 -48.73612976 160.14717102 C-49.8812512 161.87680921 -51.02711243 163.6059578 -52.17362976 165.33467102 C-65.00104238 185.66949566 -65.95204343 213.49416835 -60.77909851 236.54170227 C-54.46840221 258.35733032 -41.98787909 276.08067684 -22.29862976 288.02217102 C-17.80109815 290.38929292 -13.08705836 291.49520168 -8.14237976 292.56904602 C-5.73612976 293.14717102 -5.73612976 293.14717102 -4.73612976 294.14717102 C1.61061823 295.19027081 7.8425862 295.29841605 14.26387024 295.27217102 C15.21004211 295.27603821 16.15621399 295.2799054 17.13105774 295.28388977 C24.54797477 295.27361703 31.35869943 295.12473629 38.26387024 292.14717102 C40.01026924 291.77565446 41.76069758 291.42278289 43.51387024 291.08467102 C52.64705894 288.89225134 62.11596058 284.11245278 69.57637024 278.36592102 C71.26387024 277.14717102 71.26387024 277.14717102 74.26387024 277.14717102 C74.59387024 276.15717102 74.92387024 275.16717102 75.26387024 274.14717102 C76.5854639 273.45752443 77.92030671 272.79297228 79.26387024 272.14717102 C80.82842512 270.61164635 80.82842512 270.61164635 82.20137024 268.83467102 C84.75359473 265.74615632 87.3077918 262.85690959 90.26387024 260.14717102 C90.92387024 260.14717102 91.58387024 260.14717102 92.26387024 260.14717102 C92.92387024 258.49717102 93.58387024 256.84717102 94.26387024 255.14717102 C94.92387024 255.14717102 95.58387024 255.14717102 96.26387024 255.14717102 C96.38762024 254.56967102 96.51137024 253.99217102 96.63887024 253.39717102 C97.27035848 251.12381335 98.15245215 249.22181813 99.26387024 247.14717102 C99.92387024 247.14717102 100.58387024 247.14717102 101.26387024 247.14717102 C101.92387024 244.83717102 102.58387024 242.52717102 103.26387024 240.14717102 C103.92387024 240.14717102 104.58387024 240.14717102 105.26387024 240.14717102 C105.92387024 237.17717102 106.58387024 234.20717102 107.26387024 231.14717102 C106.09199158 231.17073669 106.09199158 231.17073669 104.8964386 231.19477844 C101.33149045 231.25742341 97.76665846 231.29625591 94.20137024 231.33467102 C92.97224915 231.35980774 91.74312805 231.38494446 90.47676086 231.4108429 C83.97492969 231.46341835 78.95987822 231.42919594 73.26387024 228.14717102 C71.45271068 226.33601146 71.88187576 223.53438875 71.70137024 221.08467102 C71.57568665 219.42758118 71.57568665 219.42758118 71.44746399 217.73701477 C71.38687805 216.88236633 71.32629211 216.0277179 71.26387024 215.14717102 C69.61387024 214.81717102 67.96387024 214.48717102 66.26387024 214.14717102 C66.26387024 213.48717102 66.26387024 212.82717102 66.26387024 212.14717102 C64.94387024 211.48717102 63.62387024 210.82717102 62.26387024 210.14717102 C62.69687788 203.32730073 64.17174848 198.23074081 67.26387024 192.14717102 C67.92387024 192.14717102 68.58387024 192.14717102 69.26387024 192.14717102 C69.36570618 191.45236633 69.46754211 190.75756165 69.57246399 190.04170227 C70.3810403 186.6566455 71.73062737 183.92430083 73.32637024 180.83467102 C74.14814758 179.2317218 74.14814758 179.2317218 74.98652649 177.59638977 C75.61881165 176.38402649 75.61881165 176.38402649 76.26387024 175.14717102 C76.92387024 175.14717102 77.58387024 175.14717102 78.26387024 175.14717102 C79.74887024 170.69217102 79.74887024 170.69217102 81.26387024 166.14717102 C81.92387024 166.14717102 82.58387024 166.14717102 83.26387024 166.14717102 C83.44949524 165.32217102 83.63512024 164.49717102 83.82637024 163.64717102 C85.73151014 159.00856953 88.60563185 155.56098368 92.26387024 152.14717102 C95.55695786 151.04947515 98.0014116 151.01361243 101.4691925 151.00190735 C103.39379051 150.99233757 103.39379051 150.99233757 105.35726929 150.98257446 C106.76493797 150.98104354 108.17260716 150.97993078 109.58027649 150.97920227 C111.03502433 150.97598449 112.48977186 150.97262003 113.94451904 150.96911621 C117.00532273 150.96311974 120.0660982 150.96127629 123.12690735 150.96186829 C126.23308724 150.96194888 129.33911759 150.95511908 132.44526672 150.94136047 C165.39292133 150.79716432 165.39292133 150.79716432 180.26387024 153.14717102 C180.26387024 153.80717102 180.26387024 154.46717102 180.26387024 155.14717102 C182.08918274 155.33279602 182.08918274 155.33279602 183.95137024 155.52217102 C190.22071842 156.32508754 194.8822959 158.98153906 200.26387024 162.14717102 C200.26387024 162.80717102 200.26387024 163.46717102 200.26387024 164.14717102 C200.8323468 164.31732727 201.40082336 164.48748352 201.98652649 164.66279602 C207.19608164 166.29784839 211.61750165 168.28026274 216.26387024 171.14717102 C216.26387024 171.80717102 216.26387024 172.46717102 216.26387024 173.14717102 C216.81429993 173.21162415 217.36472961 173.27607727 217.93183899 173.34248352 C226.78079269 176.39589133 234.01931775 188.40028287 238.26387024 196.14717102 C238.87875305 197.25318665 238.87875305 197.25318665 239.50605774 198.38154602 C252.37779043 224.12501139 243.674495 265.15403759 235.33222961 291.03779602 C231.27316049 302.87605871 226.15424879 314.1186484 220.26387024 325.14717102 C219.58711243 326.43301086 219.58711243 326.43301086 218.89668274 327.74482727 C213.57088016 337.61322617 207.32264798 346.8262435 200.32246399 355.57295227 C199.02342681 357.19736499 197.73649971 358.83160625 196.46699524 360.47920227 C191.72676093 366.49929985 186.61579502 371.9821187 181.20137024 377.39717102 C180.21088684 378.38874207 180.21088684 378.38874207 179.20039368 379.40034485 C173.08031975 385.45297368 166.79419825 391.22279679 159.76387024 396.20967102 C155.73231383 399.08215496 151.79188677 402.03163243 147.92012024 405.11592102 C146.26387024 406.14717102 146.26387024 406.14717102 143.26387024 406.14717102 C143.26387024 406.80717102 143.26387024 407.46717102 143.26387024 408.14717102 C120.22445692 420.89167408 97.31750369 428.92540947 71.26387024 433.14717102 C70.24921692 433.32522278 69.2345636 433.50327454 68.18916321 433.6867218 C58.15440624 435.31716946 48.27799762 435.54597066 38.13887024 435.52217102 C37.26391907 435.5216272 36.3889679 435.52108337 35.48750305 435.52052307 C-5.12019876 435.40511832 -53.24715638 426.64117222 -86.73612976 402.14717102 C-88.19238733 401.20644989 -89.65080892 400.26907212 -91.11112976 399.33467102 C-95.69257923 396.28836692 -99.88023049 392.83213777 -104.09941101 389.30732727 C-106.34433606 387.46815164 -108.62140083 385.76330838 -110.98612976 384.08467102 C-114.49877184 381.49867685 -117.22945122 378.53368667 -119.99784851 375.17451477 C-121.78046225 373.04199381 -121.78046225 373.04199381 -124.08378601 370.80732727 C-133.08513335 361.77946639 -140.7294974 351.77012976 -147.73612976 341.14717102 C-148.47862976 340.07467102 -149.22112976 339.00217102 -149.98612976 337.89717102 C-151.73612976 335.14717102 -151.73612976 335.14717102 -151.73612976 333.14717102 C-152.39612976 333.14717102 -153.05612976 333.14717102 -153.73612976 333.14717102 C-154.39612976 331.16717102 -155.05612976 329.18717102 -155.73612976 327.14717102 C-156.39612976 327.14717102 -157.05612976 327.14717102 -157.73612976 327.14717102 C-160.73612976 321.39717102 -160.73612976 321.39717102 -160.73612976 319.14717102 C-161.39612976 319.14717102 -162.05612976 319.14717102 -162.73612976 319.14717102 C-174.77527993 295.55043669 -184.31587514 271.17712629 -188.30253601 244.85810852 C-188.70554504 242.33839442 -189.2326229 239.88429605 -189.79862976 237.39717102 C-193.34924438 219.78388592 -192.21922891 200.62252079 -190.86112976 182.83467102 C-190.78273865 181.7790094 -190.70434753 180.72334778 -190.62358093 179.63569641 C-190.16938568 174.21452982 -189.36568295 169.36049253 -187.73612976 164.14717102 C-187.22988306 161.52316978 -186.75027544 158.90502765 -186.29862976 156.27217102 C-185.23079421 150.34930638 -183.87757691 144.77106864 -181.73612976 139.14717102 C-181.44995789 138.33635071 -181.16378601 137.5255304 -180.86894226 136.69013977 C-178.05601941 128.75118809 -174.89618895 120.95251723 -171.73612976 113.14717102 C-171.07612976 113.14717102 -170.41612976 113.14717102 -169.73612976 113.14717102 C-168.74612976 109.84717102 -167.75612976 106.54717102 -166.73612976 103.14717102 C-166.07612976 103.14717102 -165.41612976 103.14717102 -164.73612976 103.14717102 C-164.50925476 102.34279602 -164.28237976 101.53842102 -164.04862976 100.70967102 C-162.39981388 96.23431363 -160.13068564 92.25995784 -157.73612976 88.14717102 C-157.07612976 88.14717102 -156.41612976 88.14717102 -155.73612976 88.14717102 C-155.39581726 87.15717102 -155.39581726 87.15717102 -155.04862976 86.14717102 C-152.73208941 80.85222164 -149.85193834 76.20565636 -145.73612976 72.14717102 C-145.40612976 71.48717102 -145.07612976 70.82717102 -144.73612976 70.14717102 C-144.07612976 70.14717102 -143.41612976 70.14717102 -142.73612976 70.14717102 C-142.46800476 69.50779602 -142.19987976 68.86842102 -141.92362976 68.20967102 C-140.73612976 66.14717102 -140.73612976 66.14717102 -137.73612976 65.14717102 C-137.46542664 64.43045227 -137.19472351 63.71373352 -136.91581726 62.97529602 C-135.31051026 59.12681168 -132.81033752 56.78272681 -129.86112976 53.89717102 C-129.33132507 53.35576477 -128.80152039 52.81435852 -128.25566101 52.25654602 C-125.43330994 49.455205 -123.51933773 48.0854144 -119.73612976 47.14717102 C-118.45176242 45.16339432 -118.45176242 45.16339432 -117.73612976 43.14717102 C-117.07612976 43.14717102 -116.41612976 43.14717102 -115.73612976 43.14717102 C-115.73612976 42.48717102 -115.73612976 41.82717102 -115.73612976 41.14717102 C-113.61894226 39.42060852 -113.61894226 39.42060852 -110.86112976 37.52217102 C-109.95620789 36.8905304 -109.05128601 36.25888977 -108.11894226 35.60810852 C-105.73612976 34.14717102 -105.73612976 34.14717102 -103.73612976 34.14717102 C-103.73612976 33.48717102 -103.73612976 32.82717102 -103.73612976 32.14717102 C-101.21659851 30.42060852 -101.21659851 30.42060852 -97.92362976 28.52217102 C-96.84468445 27.8905304 -95.76573914 27.25888977 -94.65409851 26.60810852 C-91.73612976 25.14717102 -91.73612976 25.14717102 -88.73612976 25.14717102 C-88.73612976 24.48717102 -88.73612976 23.82717102 -88.73612976 23.14717102 C-83.11112976 20.14717102 -83.11112976 20.14717102 -79.73612976 20.14717102 C-79.73612976 19.48717102 -79.73612976 18.82717102 -79.73612976 18.14717102 C-76.76612976 17.48717102 -73.79612976 16.82717102 -70.73612976 16.14717102 C-70.73612976 15.48717102 -70.73612976 14.82717102 -70.73612976 14.14717102 C-69.15500056 13.6402441 -67.57111593 13.14190659 -65.98612976 12.64717102 C-65.10441101 12.36873352 -64.22269226 12.09029602 -63.31425476 11.80342102 C-60.73612976 11.14717102 -60.73612976 11.14717102 -56.73612976 11.14717102 C-56.73612976 10.48717102 -56.73612976 9.82717102 -56.73612976 9.14717102 C-51.89371343 7.81133203 -47.80175359 6.89388983 -42.73612976 7.14717102 C-42.73612976 6.48717102 -42.73612976 5.82717102 -42.73612976 5.14717102 C-20.16698714 1.9169302 -20.16698714 1.9169302 -10.00175476 1.35810852 C-6.45686931 1.02806746 -3.7458947 0.01502086 0 0 Z " fill="#6374B7" transform="translate(237.7361297607422,40.85282897949219)"/>
<path d="M0 0 C1.2210997 -0.0071553 2.4421994 -0.01431061 3.70030212 -0.02168274 C5.06092809 -0.02452315 6.42155433 -0.02723487 7.78218079 -0.02983093 C9.20952521 -0.03609479 10.63686799 -0.04274152 12.06420898 -0.04974365 C15.94872851 -0.06716329 19.83323572 -0.07770856 23.71778464 -0.08594918 C26.14506796 -0.09109852 28.57234745 -0.09717435 30.99962807 -0.10346031 C38.59487173 -0.12251721 46.19010564 -0.13674589 53.78536862 -0.14507228 C62.55082117 -0.15484009 71.31602089 -0.18114545 80.08138436 -0.22157317 C86.85685174 -0.25174953 93.63224672 -0.26654269 100.40777999 -0.26985329 C104.45406257 -0.27220254 108.50007519 -0.2811459 112.54628563 -0.30631447 C116.35568597 -0.32962627 120.16463925 -0.33381619 123.97409248 -0.32355309 C125.36925622 -0.32305832 126.76444218 -0.32936129 128.15953827 -0.34310913 C135.64941476 -0.41276317 141.15714438 -0.45535196 147.26387024 4.14717102 C147.26387024 5.46717102 147.26387024 6.78717102 147.26387024 8.14717102 C147.92773743 8.18455383 148.59160461 8.22193665 149.27558899 8.26045227 C155.42420826 8.71823268 159.25208126 9.56563761 164.01387024 13.64717102 C167.51179401 17.84467954 166.52794048 24.06643077 166.57637024 29.20967102 C166.60537415 30.20933899 166.63437805 31.20900696 166.66426086 32.2389679 C166.72495378 39.42407538 165.33095516 44.69069269 162.26387024 51.14717102 C161.6893414 52.48521221 161.11875381 53.8249556 160.55293274 55.16670227 C160.0001872 56.43187539 159.44547447 57.69619075 158.88887024 58.95967102 C158.58779358 59.6463385 158.28671692 60.33300598 157.97651672 61.04048157 C156.14324314 65.20455572 154.25537431 69.33885579 152.32637024 73.45967102 C149.84839309 78.78566991 147.53590192 84.16872554 145.26387024 89.58467102 C144.92251038 90.3941217 144.58115051 91.20357239 144.22944641 92.03755188 C142.65682546 95.77699538 141.1079865 99.52117594 139.63105774 103.29951477 C134.9944017 115.0115972 134.9944017 115.0115972 129.26387024 118.14717102 C120.99107404 121.19669796 113.3071108 121.46884892 104.57637024 121.27217102 C101.5985762 121.23516278 98.6207273 121.21420155 95.64277649 121.19404602 C94.80580231 121.1874295 93.96882812 121.18081299 93.10649109 121.17399597 C80.5184913 121.09484931 67.9312302 121.28275309 55.34477234 121.46253967 C52.47520091 121.50317397 49.60563967 121.53874389 46.73594666 121.56959534 C42.63569718 121.61371559 38.53578892 121.67278804 34.43574524 121.73310852 C33.21584396 121.74464966 31.99594269 121.7561908 30.73907471 121.76808167 C5.25474842 122.20048906 -20.53381589 129.37603485 -38.73612976 148.14717102 C-39.39612976 148.14717102 -40.05612976 148.14717102 -40.73612976 148.14717102 C-41.00425476 148.74529602 -41.27237976 149.34342102 -41.54862976 149.95967102 C-42.74185399 152.15771566 -43.98291847 153.39395973 -45.73612976 155.14717102 C-46.74618182 156.80776508 -47.7445956 158.475454 -48.73612976 160.14717102 C-49.8812512 161.87680921 -51.02711243 163.6059578 -52.17362976 165.33467102 C-65.00104238 185.66949566 -65.95204343 213.49416835 -60.77909851 236.54170227 C-54.42152124 258.51939448 -41.8721669 276.09265473 -22.04862976 288.08467102 C-20.95550476 288.76529602 -19.86237976 289.44592102 -18.73612976 290.14717102 C-18.73612976 290.80717102 -18.73612976 291.46717102 -18.73612976 292.14717102 C-25.13665867 292.49629078 -29.77418553 291.3726913 -35.73612976 289.14717102 C-37.21376355 288.66329798 -38.69294208 288.18411672 -40.17362976 287.70967102 C-48.30742459 284.97478879 -55.57292533 281.88859961 -62.73612976 277.14717102 C-63.67005554 276.5960968 -63.67005554 276.5960968 -64.62284851 276.03388977 C-86.95865952 262.84987151 -101.5261905 242.36226599 -113.73612976 220.14717102 C-114.33554382 219.08627258 -114.93495789 218.02537415 -115.55253601 216.93232727 C-124.86705408 199.59224533 -129.83624173 178.52127891 -129.93925476 158.92451477 C-129.94495483 158.06137161 -129.95065491 157.19822845 -129.95652771 156.30892944 C-129.96592319 154.48947859 -129.97248983 152.67001114 -129.97636414 150.85054016 C-129.98601767 148.11641908 -130.01707193 145.3830678 -130.04862976 142.64912415 C-130.1121117 132.05924226 -129.30968653 122.43506707 -126.73612976 112.14717102 C-126.47179138 111.00965393 -126.207453 109.87213684 -125.93510437 108.70014954 C-124.60071156 102.99111092 -122.99437584 97.55384318 -120.73612976 92.14717102 C-120.2914032 91.06306946 -119.84667664 89.9789679 -119.38847351 88.86201477 C-105.95980518 56.7499818 -82.61371731 28.57860709 -50.71269226 13.74092102 C-48.40514062 12.80370005 -46.0909921 11.95638735 -43.73612976 11.14717102 C-42.25651138 10.56498441 -40.77732122 9.9817079 -39.29862976 9.39717102 C-35.73612976 8.14717102 -35.73612976 8.14717102 -32.73612976 8.14717102 C-32.73612976 7.48717102 -32.73612976 6.82717102 -32.73612976 6.14717102 C-31.50636414 5.96541321 -31.50636414 5.96541321 -30.25175476 5.77998352 C-29.17409851 5.6124054 -28.09644226 5.44482727 -26.98612976 5.27217102 C-25.91878601 5.10974915 -24.85144226 4.94732727 -23.75175476 4.77998352 C-21.01905563 4.20654147 -19.18897433 3.39378133 -16.73612976 2.14717102 C-14.44706726 1.76826477 -14.44706726 1.76826477 -12.11112976 1.58467102 C-7.82184203 1.23554295 -4.38194232 0.01757138 0 0 Z " fill="#4BA6DC" transform="translate(237.7361297607422,40.85282897949219)"/>
<path d="M0 0 C3.21244296 1.64740665 6.32538989 3.419347 9.4375 5.25 C9.4375 5.91 9.4375 6.57 9.4375 7.25 C10.29021484 7.50523437 10.29021484 7.50523437 11.16015625 7.765625 C16.3697114 9.40067737 20.79113141 11.38309172 25.4375 14.25 C25.4375 14.91 25.4375 15.57 25.4375 16.25 C25.98792969 16.31445312 26.53835938 16.37890625 27.10546875 16.4453125 C35.95442245 19.49872031 43.19294751 31.50311185 47.4375 39.25 C47.84742188 39.98734375 48.25734375 40.7246875 48.6796875 41.484375 C61.55142019 67.22784037 52.84812476 108.25686656 44.50585938 134.140625 C40.44679026 145.97888769 35.32787855 157.22147738 29.4375 168.25 C28.98632812 169.10722656 28.53515625 169.96445312 28.0703125 170.84765625 C22.74450992 180.71605515 16.49627774 189.92907248 9.49609375 198.67578125 C8.19705657 200.30019397 6.91012947 201.93443523 5.640625 203.58203125 C0.90039069 209.60212883 -4.21057522 215.08494768 -9.625 220.5 C-10.28532227 221.16104736 -10.94564453 221.82209473 -11.62597656 222.50317383 C-17.74605049 228.55580266 -24.03217199 234.32562577 -31.0625 239.3125 C-35.09405641 242.18498394 -39.03448347 245.13446141 -42.90625 248.21875 C-44.5625 249.25 -44.5625 249.25 -47.5625 249.25 C-47.5625 249.91 -47.5625 250.57 -47.5625 251.25 C-70.60191332 263.99450306 -93.50886655 272.02823845 -119.5625 276.25 C-120.57715332 276.42805176 -121.59180664 276.60610352 -122.63720703 276.78955078 C-132.671964 278.41999844 -142.54837262 278.64879964 -152.6875 278.625 C-153.56245117 278.62445618 -154.43740234 278.62391235 -155.33886719 278.62335205 C-195.946569 278.5079473 -244.07352662 269.74400119 -277.5625 245.25 C-279.01875757 244.30927887 -280.47717916 243.3719011 -281.9375 242.4375 C-286.51894947 239.3911959 -290.70660073 235.93496675 -294.92578125 232.41015625 C-297.1707063 230.57098062 -299.44777107 228.86613736 -301.8125 227.1875 C-305.32514208 224.60150583 -308.05582146 221.63651565 -310.82421875 218.27734375 C-312.60683249 216.14482279 -312.60683249 216.14482279 -314.91015625 213.91015625 C-323.91150359 204.88229537 -331.55586764 194.87295874 -338.5625 184.25 C-339.305 183.1775 -340.0475 182.105 -340.8125 181 C-342.5625 178.25 -342.5625 178.25 -342.5625 176.25 C-343.2225 176.25 -343.8825 176.25 -344.5625 176.25 C-345.2225 174.27 -345.8825 172.29 -346.5625 170.25 C-347.2225 170.25 -347.8825 170.25 -348.5625 170.25 C-351.5625 164.5 -351.5625 164.5 -351.5625 162.25 C-352.2225 162.25 -352.8825 162.25 -353.5625 162.25 C-363.04597719 143.66238471 -370.60009217 124.95614603 -375.875 104.75 C-376.20113281 103.5021875 -376.52726562 102.254375 -376.86328125 100.96875 C-377.626381 96.91025302 -377.68545246 93.36663046 -377.5625 89.25 C-376.9025 89.25 -376.2425 89.25 -375.5625 89.25 C-374.9025 93.21 -374.2425 97.17 -373.5625 101.25 C-372.9025 101.25 -372.2425 101.25 -371.5625 101.25 C-371.12550781 102.80847656 -371.12550781 102.80847656 -370.6796875 104.3984375 C-368.53847794 111.7770616 -366.37211676 118.47647885 -362.08984375 124.94140625 C-360.87890877 126.77174531 -359.76473199 128.66603823 -358.6875 130.578125 C-356.54747815 134.35830588 -354.14330507 137.90107466 -351.625 141.4375 C-350.99948242 142.34145508 -350.99948242 142.34145508 -350.36132812 143.26367188 C-347.76963926 146.91286593 -345.12052976 149.48122908 -341.5625 152.25 C-341.5625 152.91 -341.5625 153.57 -341.5625 154.25 C-340.9025 154.25 -340.2425 154.25 -339.5625 154.25 C-338.08203125 155.75390625 -338.08203125 155.75390625 -336.375 157.8125 C-333.4537515 161.25605072 -330.40178859 164.44950051 -327.16796875 167.59765625 C-325.5625 169.25 -325.5625 169.25 -323.25 172.3125 C-320.14711546 175.70402496 -316.94891927 177.56156204 -312.98046875 179.8125 C-310.9306777 181.03111568 -309.22228007 182.2477613 -307.4375 183.8125 C-303.23315424 187.37705401 -298.59564159 190.09480592 -293.8125 192.8125 C-291.5625 194.25 -291.5625 194.25 -289.75 196.1875 C-287.24124026 198.55290204 -284.79387243 199.78828419 -281.6953125 201.24609375 C-279.65401838 202.20692267 -277.67853076 203.25249779 -275.6875 204.3125 C-271.95931643 206.18757857 -268.17663739 207.36335088 -264.15234375 208.44140625 C-261.5625 209.25 -261.5625 209.25 -258.375 210.7109375 C-253.94432433 212.65358614 -249.36379562 213.44863853 -244.625 214.3125 C-242.90719676 214.63483083 -241.18974254 214.95902773 -239.47265625 215.28515625 C-238.64137207 215.44258301 -237.81008789 215.60000977 -236.95361328 215.76220703 C-234.75597634 216.21053035 -232.6016637 216.73626564 -230.43359375 217.30859375 C-223.84826837 218.91007046 -217.39605346 219.4098343 -210.63671875 219.453125 C-209.53003845 219.46330658 -209.53003845 219.46330658 -208.40100098 219.47369385 C-206.01729061 219.49060181 -203.63376643 219.49689065 -201.25 219.5 C-200.03118637 219.50350464 -200.03118637 219.50350464 -198.78775024 219.50708008 C-183.86771011 219.52321203 -169.3386782 218.40148174 -154.5625 216.25 C-154.5625 215.59 -154.5625 214.93 -154.5625 214.25 C-147.6325 213.26 -147.6325 213.26 -140.5625 212.25 C-140.5625 211.59 -140.5625 210.93 -140.5625 210.25 C-139.83804688 210.05664062 -139.11359375 209.86328125 -138.3671875 209.6640625 C-129.61209253 208.04204148 -129.61209253 208.04204148 -122.33203125 203.8359375 C-119.77064367 201.54030095 -117.01178467 200.91015637 -113.75 199.875 C-108.3766478 198.09530846 -104.668671 196.14005674 -100.5625 192.25 C-99.23389075 191.89830932 -97.90091672 191.56229724 -96.5625 191.25 C-95.22630237 189.91953713 -93.89344599 188.58571641 -92.5625 187.25 C-91.00659303 186.06719317 -89.42155287 184.92192658 -87.8125 183.8125 C-86.93851562 183.20664062 -86.06453125 182.60078125 -85.1640625 181.9765625 C-82.87717723 180.45883984 -80.55998792 179.06478699 -78.1875 177.6875 C-75.47968437 176.05628576 -73.94474942 174.6452626 -72.3125 171.9375 C-71.735 171.050625 -71.1575 170.16375 -70.5625 169.25 C-69.2425 169.25 -67.9225 169.25 -66.5625 169.25 C-66.294375 168.693125 -66.02625 168.13625 -65.75 167.5625 C-62.07360949 160.40321322 -57.21950328 154.90700328 -51.5625 149.25 C-48.69417919 146.03400394 -47.04901558 143.12188923 -45.47265625 139.125 C-44.42718151 136.97123229 -43.12464299 135.30171785 -41.625 133.4375 C-38.67088123 129.69366631 -37.06358842 125.94038047 -35.51953125 121.44921875 C-34.49951324 119.10525899 -33.38643734 117.99833372 -31.5625 116.25 C-20.89176724 97.87037286 -19.32847973 73.73972254 -19.53515625 53.00390625 C-19.54778707 50.51367319 -19.56014913 48.02343875 -19.57226562 45.53320312 C-19.5971823 41.65335688 -19.62533216 37.77358409 -19.65844727 33.89379883 C-19.68858913 30.11799647 -19.70639005 26.34229021 -19.72265625 22.56640625 C-19.74284569 20.82418541 -19.74284569 20.82418541 -19.76344299 19.04676819 C-19.76851112 17.42368996 -19.76851112 17.42368996 -19.77368164 15.76782227 C-19.78113907 14.8202858 -19.7885965 13.87274933 -19.79627991 12.89649963 C-19.33341816 7.65668475 -17.07403442 4.08076482 -13.5625 0.25 C-9.02443314 -1.26268895 -4.56687701 -1.33664693 0 0 Z " fill="#3EB9E3" transform="translate(428.5625,197.75)"/>
<path d="M0 0 C4.03321763 1.21934486 7.54269479 2.55954927 11 5 C11 5.66 11 6.32 11 7 C11.55042969 7.06445312 12.10085938 7.12890625 12.66796875 7.1953125 C21.51692245 10.24872031 28.75544751 22.25311185 33 30 C33.40992188 30.73734375 33.81984375 31.4746875 34.2421875 32.234375 C47.11392019 57.97784037 38.41062476 99.00686656 30.06835938 124.890625 C26.00929026 136.72888769 20.89037855 147.97147738 15 159 C14.54882812 159.85722656 14.09765625 160.71445312 13.6328125 161.59765625 C8.30700992 171.46605515 2.05877774 180.67907248 -4.94140625 189.42578125 C-6.24044343 191.05019397 -7.52737053 192.68443523 -8.796875 194.33203125 C-13.53710931 200.35212883 -18.64807522 205.83494768 -24.0625 211.25 C-24.72282227 211.91104736 -25.38314453 212.57209473 -26.06347656 213.25317383 C-32.18355049 219.30580266 -38.46967199 225.07562577 -45.5 230.0625 C-49.53155641 232.93498394 -53.47198347 235.88446141 -57.34375 238.96875 C-59 240 -59 240 -62 240 C-62 240.66 -62 241.32 -62 242 C-85.03941332 254.74450306 -107.94636655 262.77823845 -134 267 C-135.01465332 267.17805176 -136.02930664 267.35610352 -137.07470703 267.53955078 C-147.109464 269.16999844 -156.98587262 269.39879964 -167.125 269.375 C-167.99995117 269.37445618 -168.87490234 269.37391235 -169.77636719 269.37335205 C-210.384069 269.2579473 -258.51102662 260.49400119 -292 236 C-293.45625757 235.05927887 -294.91467916 234.1219011 -296.375 233.1875 C-300.95644947 230.1411959 -305.14410073 226.68496675 -309.36328125 223.16015625 C-311.6082063 221.32098062 -313.88527107 219.61613736 -316.25 217.9375 C-319.76264208 215.35150583 -322.49332146 212.38651565 -325.26171875 209.02734375 C-327.04020441 206.89847831 -327.04020441 206.89847831 -329.328125 204.6875 C-332.39714371 201.60053381 -335.23365731 198.36815391 -338.0625 195.0625 C-338.57876953 194.46759766 -339.09503906 193.87269531 -339.62695312 193.25976562 C-342.71667915 189.65836522 -345.45132098 186.00332077 -348 182 C-347.505 181.01 -347.505 181.01 -347 180 C-345.49405319 181.61949042 -343.99539332 183.24575974 -342.5 184.875 C-341.6646875 185.77992188 -340.829375 186.68484375 -339.96875 187.6171875 C-338 190 -338 190 -338 192 C-337.195625 192.268125 -336.39125 192.53625 -335.5625 192.8125 C-334.716875 193.204375 -333.87125 193.59625 -333 194 C-332.67 194.99 -332.34 195.98 -332 197 C-329.99983534 198.20882096 -329.99983534 198.20882096 -328 199 C-328 199.66 -328 200.32 -328 201 C-327.45085937 201.24621094 -326.90171875 201.49242187 -326.3359375 201.74609375 C-323.51829246 203.25857545 -321.1511241 205.10042827 -318.625 207.0625 C-308.39475749 214.86517327 -297.2905212 222.9031596 -285 227 C-285 227.66 -285 228.32 -285 229 C-282.36 229.66 -279.72 230.32 -277 231 C-277 231.66 -277 232.32 -277 233 C-276.10861328 233.14695312 -276.10861328 233.14695312 -275.19921875 233.296875 C-268.47969962 234.50910551 -262.36620469 236.57029466 -256 239 C-249.64889645 241.3647726 -243.26396141 242.89384124 -236.625 244.25390625 C-234.71636264 244.64674002 -232.80840346 245.04544004 -230.91235352 245.49511719 C-225.2748568 246.82625305 -219.70064086 247.57953593 -213.9375 248.125 C-212.6390918 248.25455078 -212.6390918 248.25455078 -211.31445312 248.38671875 C-209.21011156 248.59599029 -207.10511876 248.79869668 -205 249 C-205 249.66 -205 250.32 -205 251 C-190.81 251 -176.62 251 -162 251 C-162 250.34 -162 249.68 -162 249 C-161.32122803 248.93006836 -160.64245605 248.86013672 -159.94311523 248.78808594 C-142.24000609 246.9472206 -142.24000609 246.9472206 -124.98828125 242.76953125 C-121.87310803 241.96732324 -119.20254488 241.86075892 -116 242 C-116 241.34 -116 240.68 -116 240 C-114.76636719 239.65388672 -114.76636719 239.65388672 -113.5078125 239.30078125 C-101.87130655 235.90120157 -92.18967284 230.65181446 -81.88769531 224.39013672 C-81.18483398 223.96748535 -80.48197266 223.54483398 -79.7578125 223.109375 C-79.1302002 222.72749023 -78.50258789 222.34560547 -77.85595703 221.95214844 C-75.91939574 220.95864817 -74.12459672 220.44313857 -72 220 C-72 219.34 -72 218.68 -72 218 C-70.48668339 216.78995325 -68.91017036 215.65876169 -67.3125 214.5625 C-57.47957673 207.55512939 -48.57219891 199.74329428 -40 191.25 C-39.06559082 190.32948853 -39.06559082 190.32948853 -38.11230469 189.39038086 C-34.25617841 185.50757764 -31.12316435 181.48954875 -28 177 C-27.01365107 175.98653278 -26.01435741 174.98543343 -25 174 C-21.72854529 170.16450138 -19.04795374 166.05024779 -16.3671875 161.79296875 C-15.91601562 161.20128906 -15.46484375 160.60960937 -15 160 C-14.34 160 -13.68 160 -13 160 C-12.7525 159.13375 -12.505 158.2675 -12.25 157.375 C-10.92989281 153.81071059 -9.14839092 151.11863198 -7 148 C-6.67 147.01 -6.34 146.02 -6 145 C-5.34 145 -4.68 145 -4 145 C-3.34 142.69 -2.68 140.38 -2 138 C-1.34 138 -0.68 138 0 138 C1.485 132.555 1.485 132.555 3 127 C3.66 127 4.32 127 5 127 C5.66 124.03 6.32 121.06 7 118 C7.66 118 8.32 118 9 118 C9.0825 116.9275 9.165 115.855 9.25 114.75 C9.69492373 111.11347414 10.64753886 107.92345278 11.87890625 104.4765625 C13.98966358 98.26655709 15.44255332 92.05864056 16.6875 85.625 C16.90172607 84.52792725 17.11595215 83.43085449 17.33666992 82.30053711 C18.81442182 74.49682812 19.8709621 66.95426465 20 59 C20.01901367 58.31953613 20.03802734 57.63907227 20.05761719 56.93798828 C20.34862014 46.11601782 19.63238577 35.69795675 18 25 C17.34 25 16.68 25 16 25 C14.74335022 22.09399739 14 20.20395416 14 17 C13.01 16.67 12.02 16.34 11 16 C10.06782988 14.3354105 9.14056972 12.66768092 8.25 10.98046875 C6.38871606 8.03149701 3.94729199 5.82766092 1.390625 3.48046875 C0 2 0 2 0 0 Z " fill="#303031" transform="translate(443,207)"/>
<path d="M0 0 C6.81003413 0.38347765 11.43896305 0.94768261 16.75 5.5 C20.24792377 9.69750852 19.26407024 15.91925975 19.3125 21.0625 C19.34150391 22.06216797 19.37050781 23.06183594 19.40039062 24.09179688 C19.46108354 31.27690436 18.06708492 36.54352167 15 43 C14.42547116 44.33804119 13.85488357 45.67778458 13.2890625 47.01953125 C12.73631696 48.28470437 12.18160423 49.54901973 11.625 50.8125 C11.32392334 51.49916748 11.02284668 52.18583496 10.71264648 52.89331055 C8.8793729 57.0573847 6.99150407 61.19168477 5.0625 65.3125 C2.58452285 70.63849889 0.27203168 76.02155452 -2 81.4375 C-2.34135986 82.24695068 -2.68271973 83.05640137 -3.03442383 83.89038086 C-4.60704478 87.62982436 -6.15588374 91.37400492 -7.6328125 95.15234375 C-12.26946854 106.86442618 -12.26946854 106.86442618 -18 110 C-26.27279619 113.04952694 -33.95675944 113.3216779 -42.6875 113.125 C-45.66529404 113.08799176 -48.64314294 113.06703053 -51.62109375 113.046875 C-52.45806793 113.04025848 -53.29504211 113.03364197 -54.15737915 113.02682495 C-66.74537894 112.94767829 -79.33264004 113.13558207 -91.9190979 113.31536865 C-94.78866933 113.35600295 -97.65823057 113.39157287 -100.52792358 113.42242432 C-104.62817306 113.46654457 -108.72808132 113.52561702 -112.828125 113.5859375 C-114.04802628 113.59747864 -115.26792755 113.60901978 -116.52479553 113.62091064 C-142.00912182 114.05331804 -167.79768613 121.22886383 -186 140 C-186.66 140 -187.32 140 -188 140 C-188.268125 140.598125 -188.53625 141.19625 -188.8125 141.8125 C-190.00572423 144.01054464 -191.24678871 145.24678871 -193 147 C-194.01005206 148.66059406 -195.00846584 150.32828298 -196 152 C-197.14512144 153.72963819 -198.29098267 155.45878678 -199.4375 157.1875 C-212.26491262 177.52232464 -213.21591367 205.34699733 -208.04296875 228.39453125 C-202.47982207 247.62593343 -192.56067515 262.2645871 -177 275 C-177.66 275.33 -178.32 275.66 -179 276 C-181.03144641 275.06553465 -183.03533587 274.06775224 -185 273 C-185 272.34 -185 271.68 -185 271 C-185.71671875 270.90847656 -186.4334375 270.81695312 -187.171875 270.72265625 C-196.31216041 268.38708608 -206.61998138 258.53888215 -212.1875 251.0625 C-213.0846875 249.5465625 -213.0846875 249.5465625 -214 248 C-214.99654836 246.53930583 -215.99685802 245.08117385 -217 243.625 C-221.5488912 236.77301779 -224.66526538 229.87972934 -227 222 C-227.1959375 221.34128906 -227.391875 220.68257812 -227.59375 220.00390625 C-230.23548588 210.34991557 -230.19291316 200.37876193 -230.1875 190.4375 C-230.18814453 189.2112793 -230.18878906 187.98505859 -230.18945312 186.72167969 C-230.13521974 177.3565602 -229.478863 168.24289377 -228 159 C-227.34 159 -226.68 159 -226 159 C-225.938125 157.88625 -225.87625 156.7725 -225.8125 155.625 C-225.2435895 151.02495228 -223.48350697 147.47350728 -221.296875 143.42578125 C-220.00684957 141.11402212 -220.00684957 141.11402212 -219.203125 139.04296875 C-216.06197944 131.43049864 -209.70422352 125.75321916 -204 120 C-203.24332031 119.23042969 -202.48664063 118.46085937 -201.70703125 117.66796875 C-189.90102617 106.43786635 -173.45506895 98.61456595 -157 99 C-157 98.34 -157 97.68 -157 97 C-143.74775817 95.4151611 -130.69469127 94.71627471 -117.35111237 94.72560501 C-114.23873136 94.72659081 -111.12667677 94.71339823 -108.01434326 94.69662476 C-99.1830881 94.65091478 -90.35187784 94.62570825 -81.52050781 94.61914062 C-76.07675208 94.61412137 -70.63335443 94.58987912 -65.18972015 94.55381393 C-63.13094992 94.54405373 -61.0721303 94.54166322 -59.01334381 94.54698563 C-56.14294444 94.55407315 -53.27361822 94.53674848 -50.40332031 94.51416016 C-49.56583252 94.52233261 -48.72834473 94.53050507 -47.86547852 94.53892517 C-42.20301244 94.45990478 -37.68529052 93.29525679 -33 90 C-30.78365832 87.11906991 -30.78365832 87.11906991 -29.375 83.6875 C-28.95915649 82.78620361 -28.95915649 82.78620361 -28.53491211 81.86669922 C-27.65399934 79.92463578 -26.82068991 77.9682285 -26 76 C-25.70786621 75.30116699 -25.41573242 74.60233398 -25.11474609 73.88232422 C-23.34692352 69.61163191 -21.65069906 65.31721292 -20 61 C-19.34 61 -18.68 61 -18 61 C-17.34 58.03 -16.68 55.06 -16 52 C-15.34 52 -14.68 52 -14 52 C-13.34 49.03 -12.68 46.06 -12 43 C-11.34 43 -10.68 43 -10 43 C-9.88398438 42.32195312 -9.76796875 41.64390625 -9.6484375 40.9453125 C-8.88602878 37.48232349 -7.77987071 34.22762468 -6.625 30.875 C-3.13939866 20.53765203 -0.55525223 10.97101816 0 0 Z " fill="#313031" transform="translate(385,49)"/>
<path d="M0 0 C1 2 1 2 0.44140625 3.9453125 C0.15136719 4.66460937 -0.13867188 5.38390625 -0.4375 6.125 C-0.72496094 6.84945312 -1.01242187 7.57390625 -1.30859375 8.3203125 C-1.53675781 8.87460938 -1.76492188 9.42890625 -2 10 C-2.66 10 -3.32 10 -4 10 C-4.144375 11.11375 -4.28875 12.2275 -4.4375 13.375 C-5 17 -5 17 -6 19 C-6.66 19 -7.32 19 -8 19 C-8.99 23.455 -8.99 23.455 -10 28 C-10.66 28 -11.32 28 -12 28 C-12.12004395 28.88083252 -12.24008789 29.76166504 -12.36376953 30.66918945 C-12.9719784 33.85330059 -13.84729067 36.35152184 -15.1796875 39.29296875 C-15.83130859 40.7325293 -15.83130859 40.7325293 -16.49609375 42.20117188 C-16.95113281 43.18666016 -17.40617188 44.17214844 -17.875 45.1875 C-18.32230469 46.18458984 -18.76960937 47.18167969 -19.23046875 48.20898438 C-22.24657692 54.80616494 -23.99010872 58.46285645 -30.92410851 61.35317898 C-34.71269057 62.5336523 -38.49391264 62.43034858 -42.43261719 62.41650391 C-43.35231293 62.42508926 -44.27200867 62.43367462 -45.21957397 62.44252014 C-48.24541982 62.46751293 -51.27093548 62.47195518 -54.296875 62.4765625 C-56.41287218 62.49088642 -58.52886008 62.50664592 -60.64483643 62.52377319 C-66.210349 62.56558083 -71.77580415 62.59059744 -77.34143066 62.61126709 C-86.23419909 62.64709549 -95.12682484 62.70846108 -104.01944733 62.76975632 C-107.11182132 62.78869472 -110.20415751 62.80053571 -113.29656982 62.81118774 C-125.59756015 62.83375386 -125.59756015 62.83375386 -137.85455322 63.78256226 C-141.57116268 64.15923493 -145.26813293 64.06117815 -149 64 C-149 64.66 -149 65.32 -149 66 C-150.20914063 66.20753906 -151.41828125 66.41507812 -152.6640625 66.62890625 C-175.34515034 70.78741579 -194.22658453 82.11958174 -207.83203125 101.13671875 C-209.59661584 103.95179183 -210.78737453 106.91331698 -212 110 C-213.29413763 112.6878243 -214.64714373 115.34093768 -216 118 C-218.60505778 110.18482666 -212.42480247 99.045775 -209 92 C-200.87715538 76.71214044 -190.92079759 63.508819 -179 51 C-178.33355469 50.28070313 -177.66710937 49.56140625 -176.98046875 48.8203125 C-173.05014141 44.69967457 -168.7951101 41.12095887 -164.3125 37.625 C-163.7654541 37.19558105 -163.2184082 36.76616211 -162.65478516 36.32373047 C-159.54152691 33.9515888 -156.62090641 32.41875379 -153 31 C-151.97369818 30.02701256 -150.97423937 29.02511348 -150 28 C-148.38468123 26.89165941 -146.73563039 25.83147415 -145.0625 24.8125 C-143.78052734 24.01779297 -143.78052734 24.01779297 -142.47265625 23.20703125 C-140 22 -140 22 -136 22 C-136 21.34 -136 20.68 -136 20 C-132.12315913 18.80712589 -129.08378077 18 -125 18 C-125 17.34 -125 16.68 -125 16 C-124.43603516 15.86424561 -123.87207031 15.72849121 -123.29101562 15.58862305 C-120.69273368 14.96006651 -118.09638773 14.32383379 -115.5 13.6875 C-114.613125 13.47416016 -113.72625 13.26082031 -112.8125 13.04101562 C-111.9359375 12.82509766 -111.059375 12.60917969 -110.15625 12.38671875 C-109.36025391 12.19295654 -108.56425781 11.99919434 -107.74414062 11.79956055 C-105.46195541 11.1346 -103.34923074 10.3594097 -101.14550781 9.4831543 C-85.34565757 3.48563987 -65.66186999 5.39470434 -48.91210938 4.93554688 C-46.02489433 4.85469442 -43.13791216 4.76681709 -40.25091171 4.67867851 C-36.74548178 4.5720204 -33.23993528 4.46945631 -29.734375 4.3671875 C-28.4631781 4.32971405 -27.1919812 4.2922406 -25.88226318 4.25363159 C-17.5845629 4.02560517 -9.30057956 3.95788883 -1 4 C-0.67 2.68 -0.34 1.36 0 0 Z " fill="#BD7CB4" transform="translate(377,82)"/>
<path d="M0 0 C4.03321763 1.21934486 7.54269479 2.55954927 11 5 C11 5.66 11 6.32 11 7 C11.55042969 7.06445312 12.10085938 7.12890625 12.66796875 7.1953125 C21.51692245 10.24872031 28.75544751 22.25311185 33 30 C33.40992188 30.73734375 33.81984375 31.4746875 34.2421875 32.234375 C47.11392019 57.97784037 38.41062476 99.00686656 30.06835938 124.890625 C26.00929026 136.72888769 20.89037855 147.97147738 15 159 C14.54882812 159.85722656 14.09765625 160.71445312 13.6328125 161.59765625 C8.30700992 171.46605515 2.05877774 180.67907248 -4.94140625 189.42578125 C-6.24044343 191.05019397 -7.52737053 192.68443523 -8.796875 194.33203125 C-13.53710931 200.35212883 -18.64807522 205.83494768 -24.0625 211.25 C-24.72282227 211.91104736 -25.38314453 212.57209473 -26.06347656 213.25317383 C-32.18355049 219.30580266 -38.46967199 225.07562577 -45.5 230.0625 C-49.53155641 232.93498394 -53.47198347 235.88446141 -57.34375 238.96875 C-59 240 -59 240 -62 240 C-62 240.66 -62 241.32 -62 242 C-85.03941332 254.74450306 -107.94636655 262.77823845 -134 267 C-135.01465332 267.17805176 -136.02930664 267.35610352 -137.07470703 267.53955078 C-147.109464 269.16999844 -156.98587262 269.39879964 -167.125 269.375 C-167.99995117 269.37445618 -168.87490234 269.37391235 -169.77636719 269.37335205 C-210.384069 269.2579473 -258.51102662 260.49400119 -292 236 C-293.45625757 235.05927887 -294.91467916 234.1219011 -296.375 233.1875 C-300.95644947 230.1411959 -305.14410073 226.68496675 -309.36328125 223.16015625 C-311.6082063 221.32098062 -313.88527107 219.61613736 -316.25 217.9375 C-319.76264208 215.35150583 -322.49332146 212.38651565 -325.26171875 209.02734375 C-327.04020441 206.89847831 -327.04020441 206.89847831 -329.328125 204.6875 C-332.39714371 201.60053381 -335.23365731 198.36815391 -338.0625 195.0625 C-338.57876953 194.46759766 -339.09503906 193.87269531 -339.62695312 193.25976562 C-342.71667915 189.65836522 -345.45132098 186.00332077 -348 182 C-347.505 181.01 -347.505 181.01 -347 180 C-345.49405319 181.61949042 -343.99539332 183.24575974 -342.5 184.875 C-341.6646875 185.77992188 -340.829375 186.68484375 -339.96875 187.6171875 C-338 190 -338 190 -338 192 C-336.824375 192.37125 -336.824375 192.37125 -335.625 192.75 C-333 194 -333 194 -331.6875 195.9375 C-331 198 -331 198 -331 201 C-330.01 201.33 -329.02 201.66 -328 202 C-326.28125 203.77734375 -326.28125 203.77734375 -324.5 205.9375 C-322.37123979 208.50975192 -320.81608855 210.12260763 -318 212 C-318 212.66 -318 213.32 -318 214 C-316.68 214.33 -315.36 214.66 -314 215 C-314 215.66 -314 216.32 -314 217 C-313.401875 217.28875 -312.80375 217.5775 -312.1875 217.875 C-310 219 -310 219 -307 221 C-307 221.66 -307 222.32 -307 223 C-306.195625 223.268125 -305.39125 223.53625 -304.5625 223.8125 C-303.716875 224.204375 -302.87125 224.59625 -302 225 C-301.67 225.99 -301.34 226.98 -301 228 C-299.34729704 228.70056773 -297.67591694 229.3569412 -296 230 C-293.09197715 231.66258016 -290.2727649 233.46683319 -287.4375 235.25 C-276.6941788 241.89065876 -266.10344521 247.27433275 -254.09619141 251.29199219 C-251.74878464 252.08485028 -249.41193988 252.90560114 -247.07421875 253.7265625 C-228.27768879 260.2586404 -210.13929831 263.62485876 -190.34985352 265.67456055 C-188 266 -188 266 -185 267 C-182.36457347 267.09683023 -179.75639554 267.13998417 -177.12109375 267.1328125 C-175.96928368 267.13424759 -175.96928368 267.13424759 -174.79420471 267.13571167 C-173.17277952 267.13639159 -171.55135159 267.13455043 -169.92993164 267.13037109 C-167.44346027 267.12501284 -164.95716893 267.13032617 -162.47070312 267.13671875 C-160.89583293 267.13605808 -159.32096285 267.13477714 -157.74609375 267.1328125 C-156.62732094 267.13584885 -156.62732094 267.13584885 -155.48594666 267.13894653 C-151.61552925 267.19354979 -151.61552925 267.19354979 -148 266 C-146.582272 265.77061642 -145.15739496 265.58451295 -143.73046875 265.421875 C-125.48139949 263.21986306 -108.33958299 259.89596177 -91.39404297 252.59106445 C-90.61303223 252.25550537 -89.83202148 251.91994629 -89.02734375 251.57421875 C-88.34406006 251.27088623 -87.66077637 250.96755371 -86.95678711 250.6550293 C-85 250 -85 250 -81 250 C-81 249.34 -81 248.68 -81 248 C-78.36 247.34 -75.72 246.68 -73 246 C-73 245.34 -73 244.68 -73 244 C-67.375 241 -67.375 241 -64 241 C-64 240.34 -64 239.68 -64 239 C-61.96306517 237.61048674 -59.924381 236.32885694 -57.8125 235.0625 C-50.24748846 230.35685693 -43.62222017 224.93661151 -37 219 C-36.45456543 218.5162793 -35.90913086 218.03255859 -35.34716797 217.53417969 C-25.01688552 208.34698983 -14.70132771 198.55199157 -7 187 C-6.34 187 -5.68 187 -5 187 C-4.34 185.02 -3.68 183.04 -3 181 C-2.34 181 -1.68 181 -1 181 C-0.690625 180.21625 -0.38125 179.4325 -0.0625 178.625 C1 176 1 176 2 174 C2.66 174 3.32 174 4 174 C4.226875 173.175 4.45375 172.35 4.6875 171.5 C6.54010505 166.55971987 9.37278593 162.43101862 12.296875 158.0625 C14.55470525 154.60606851 16.40258632 151.23165669 17.90234375 147.37890625 C18.24644287 146.50008789 18.59054199 145.62126953 18.94506836 144.71582031 C19.2931958 143.81959961 19.64132324 142.92337891 20 142 C20.33201416 141.16307617 20.66402832 140.32615234 21.00610352 139.46386719 C25.37838191 128.43597367 29.30759861 117.57075913 32 106 C32.27457031 104.93652344 32.54914063 103.87304688 32.83203125 102.77734375 C38.518665 79.27445844 41.23967834 50.03293597 28.5859375 28.60546875 C23.74455984 21.00683589 18.03813635 14.59851755 11 9 C10.2884375 8.195625 10.2884375 8.195625 9.5625 7.375 C7.82968162 5.70068455 7.82968162 5.70068455 4.375 4.5 C3.26125 4.005 2.1475 3.51 1 3 C0.67 2.01 0.34 1.02 0 0 Z " fill="#000000" transform="translate(443,207)"/>
<path d="M0 0 C6.43635624 0.40665432 10.72993191 1.1970845 15.75 5.5 C19.24792377 9.69750852 18.26407024 15.91925975 18.3125 21.0625 C18.34150391 22.06216797 18.37050781 23.06183594 18.40039062 24.09179688 C18.46108354 31.27690436 17.06708492 36.54352167 14 43 C13.42547116 44.33804119 12.85488357 45.67778458 12.2890625 47.01953125 C11.73631696 48.28470437 11.18160423 49.54901973 10.625 50.8125 C10.32392334 51.49916748 10.02284668 52.18583496 9.71264648 52.89331055 C7.8793729 57.0573847 5.99150407 61.19168477 4.0625 65.3125 C1.58452285 70.63849889 -0.72796832 76.02155452 -3 81.4375 C-3.34135986 82.24695068 -3.68271973 83.05640137 -4.03442383 83.89038086 C-5.60704478 87.62982436 -7.15588374 91.37400492 -8.6328125 95.15234375 C-13.26946854 106.86442618 -13.26946854 106.86442618 -19 110 C-27.27279619 113.04952694 -34.95675944 113.3216779 -43.6875 113.125 C-46.66529404 113.08799176 -49.64314294 113.06703053 -52.62109375 113.046875 C-53.45806793 113.04025848 -54.29504211 113.03364197 -55.15737915 113.02682495 C-67.74537894 112.94767829 -80.33264004 113.13558207 -92.9190979 113.31536865 C-95.78866933 113.35600295 -98.65823057 113.39157287 -101.52792358 113.42242432 C-105.62817306 113.46654457 -109.72808132 113.52561702 -113.828125 113.5859375 C-115.04802628 113.59747864 -116.26792755 113.60901978 -117.52479553 113.62091064 C-143.00912182 114.05331804 -168.79768613 121.22886383 -187 140 C-187.66 140 -188.32 140 -189 140 C-189.268125 140.598125 -189.53625 141.19625 -189.8125 141.8125 C-191.00572423 144.01054464 -192.24678871 145.24678871 -194 147 C-195.01005206 148.66059406 -196.00846584 150.32828298 -197 152 C-198.14512144 153.72963819 -199.29098267 155.45878678 -200.4375 157.1875 C-213.26491262 177.52232464 -214.21591367 205.34699733 -209.04296875 228.39453125 C-203.47982207 247.62593343 -193.56067515 262.2645871 -178 275 C-178.66 275.33 -179.32 275.66 -180 276 C-182.03144641 275.06553465 -184.03533587 274.06775224 -186 273 C-186 272.34 -186 271.68 -186 271 C-186.99 271 -187.98 271 -189 271 C-190.03435556 269.35443434 -191.02763513 267.6829392 -192 266 C-192.77472656 265.24332031 -193.54945313 264.48664063 -194.34765625 263.70703125 C-201.60841462 256.29656652 -205.90843098 246.77237428 -209 237 C-209.27457031 236.2884375 -209.54914063 235.576875 -209.83203125 234.84375 C-218.07962799 213.06684432 -215.84243848 183.1658369 -207 162 C-205.72168394 159.30030724 -204.37402511 156.65328987 -203 154 C-202.34 154 -201.68 154 -201 154 C-200.773125 153.29875 -200.54625 152.5975 -200.3125 151.875 C-198.66158712 148.25871465 -196.7091165 145.91230024 -194 143 C-193.34 143 -192.68 143 -192 143 C-191.95875 142.443125 -191.9175 141.88625 -191.875 141.3125 C-190.51022892 137.705605 -188.08919824 136.26961504 -185 134 C-184.34 134 -183.68 134 -183 134 C-182.7525 133.360625 -182.505 132.72125 -182.25 132.0625 C-181 130 -181 130 -178.875 129.25 C-178.25625 129.1675 -177.6375 129.085 -177 129 C-177 128.34 -177 127.68 -177 127 C-158.50780387 116.02609573 -139.87502185 111.97528137 -118.5703125 111.68359375 C-117.27785614 111.66281265 -115.98539978 111.64203156 -114.65377808 111.62062073 C-111.19024024 111.56540007 -107.72664316 111.51590859 -104.26300049 111.46777344 C-102.12094665 111.43744261 -99.97892996 111.4052095 -97.83691406 111.37231445 C-79.84618996 111.09636155 -61.85684831 110.86963525 -43.86376953 111.03686523 C-29.64441629 111.30998674 -29.64441629 111.30998674 -17.4375 104.6875 C-13.49654297 99.48026825 -11.41911146 93.00344938 -9 87 C-8.04391363 84.70739499 -7.08576886 82.41564665 -6.125 80.125 C-5.41592422 78.4169747 -4.70729106 76.70876512 -4 75 C-3.34 75 -2.68 75 -2 75 C-1.7834375 73.6078125 -1.7834375 73.6078125 -1.5625 72.1875 C-1 69 -1 69 0 66 C0.66 66 1.32 66 2 66 C2.12375 65.13375 2.2475 64.2675 2.375 63.375 C2.98058121 60.10486147 3.88306035 57.12743101 5 54 C5.66 54 6.32 54 7 54 C7.0825 53.175 7.165 52.35 7.25 51.5 C8.02126138 47.90078024 9.25653471 45.3034575 10.94921875 42.078125 C14.99198792 34.08275996 16.16698052 26.51388109 16.0625 17.625 C16.05573242 16.52091797 16.05573242 16.52091797 16.04882812 15.39453125 C16.03715142 13.59631842 16.01922011 11.79814803 16 10 C15.34 10 14.68 10 14 10 C13.773125 9.401875 13.54625 8.80375 13.3125 8.1875 C10.39456531 3.32427551 5.21859984 2.33023133 0 1 C0 0.67 0 0.34 0 0 Z " fill="#000000" transform="translate(386,49)"/>
<path d="M0 0 C12.87 0 25.74 0 39 0 C40.58499154 3.16998309 40.4784448 6.55405825 40 10 C39.10371299 12.3932906 38.06853183 14.6745373 37 17 C32.47928979 17.08751499 27.9587993 17.1405661 23.4375 17.1875 C22.16068359 17.21263672 20.88386719 17.23777344 19.56835938 17.26367188 C7.7562753 17.35571409 7.7562753 17.35571409 2 14 C-1.33333333 10.66666667 0.36155076 4.70015992 0 0 Z " fill="#323135" transform="translate(309,255)"/>
<path d="M0 0 C2.31 0 4.62 0 7 0 C6.773125 0.721875 6.54625 1.44375 6.3125 2.1875 C5.91302535 5.78277182 7.05436359 7.04263266 9 10 C9 10.99 9 11.98 9 13 C9.70664795 12.51104248 10.4132959 12.02208496 11.14135742 11.51831055 C14.3417294 9.8184973 16.14875103 9.6494452 19.73828125 9.70703125 C21.33833008 9.7215332 21.33833008 9.7215332 22.97070312 9.73632812 C24.62489258 9.7740332 24.62489258 9.7740332 26.3125 9.8125 C27.43462891 9.82603516 28.55675781 9.83957031 29.71289062 9.85351562 C32.47575229 9.8887862 35.23762829 9.93807765 38 10 C37.49396008 12.16874252 37.00016187 13.99967627 36 16 C31.47928979 16.08751499 26.9587993 16.1405661 22.4375 16.1875 C21.16068359 16.21263672 19.88386719 16.23777344 18.56835938 16.26367188 C6.7562753 16.35571409 6.7562753 16.35571409 1 13 C0 12 0 12 -0.09765625 9.27734375 C-0.08605469 8.17519531 -0.07445312 7.07304687 -0.0625 5.9375 C-0.05347656 4.83277344 -0.04445313 3.72804688 -0.03515625 2.58984375 C-0.02355469 1.73519531 -0.01195312 0.88054687 0 0 Z " fill="#262627" transform="translate(310,256)"/>
<path d="M0 0 C1.98 0.99 1.98 0.99 4 2 C4 2.66 4 3.32 4 4 C4.82371094 4.36931641 4.82371094 4.36931641 5.6640625 4.74609375 C8.48170754 6.25857545 10.8488759 8.10042827 13.375 10.0625 C22.70729347 17.19030322 32.60567285 23.52785423 43 29 C43 29.66 43 30.32 43 31 C43.66 31.33 44.32 31.66 45 32 C45 33.65 45 35.3 45 37 C44.01 37.495 44.01 37.495 43 38 C40.3203125 36.70703125 40.3203125 36.70703125 37.125 34.8125 C36.07570312 34.20019531 35.02640625 33.58789062 33.9453125 32.95703125 C31.25123098 31.16693199 29.2219904 29.32661326 27 27 C26.34 26.67 25.68 26.34 25 26 C25 25.34 25 24.68 25 24 C24.1028125 23.566875 24.1028125 23.566875 23.1875 23.125 C21 22 21 22 18 20 C18 19.34 18 18.68 18 18 C17.443125 17.938125 16.88625 17.87625 16.3125 17.8125 C11.13268348 15.99256447 7.74348752 10.59367879 4.33203125 6.453125 C3.0420309 4.87220817 3.0420309 4.87220817 1 4 C0.375 1.9375 0.375 1.9375 0 0 Z " fill="#282B2C" transform="translate(111,404)"/>
<path d="M0 0 C0.66 0 1.32 0 2 0 C1.67 1.98 1.34 3.96 1 6 C0.34 6 -0.32 6 -1 6 C-1.12375 6.86625 -1.2475 7.7325 -1.375 8.625 C-1.98058121 11.89513853 -2.88306035 14.87256899 -4 18 C-4.66 18 -5.32 18 -6 18 C-6.66 20.97 -7.32 23.94 -8 27 C-8.66 27 -9.32 27 -10 27 C-10.10828125 27.67546875 -10.2165625 28.3509375 -10.328125 29.046875 C-11.13525304 32.5944843 -12.38836963 35.88754596 -13.75 39.25 C-14.01731934 39.91169189 -14.28463867 40.57338379 -14.56005859 41.25512695 C-20.68478122 56.13438634 -20.68478122 56.13438634 -26 60 C-29.25 60.75 -29.25 60.75 -32 61 C-31.01 60.505 -31.01 60.505 -30 60 C-29.67 59.01 -29.34 58.02 -29 57 C-28.030625 56.195625 -27.06125 55.39125 -26.0625 54.5625 C-23.23573196 52.19724511 -22.25571766 51.28418466 -21 48 C-20.46107069 46.74881737 -19.91919919 45.49889952 -19.375 44.25 C-18.694375 42.64125 -18.694375 42.64125 -18 41 C-18.66 40.67 -19.32 40.34 -20 40 C-19.34 38.68 -18.68 37.36 -18 36 C-17.34 36 -16.68 36 -16 36 C-16.495 34.515 -16.495 34.515 -17 33 C-16.08392564 30.25177691 -15.39272383 29.23101402 -12.875 27.75 C-12.25625 27.5025 -11.6375 27.255 -11 27 C-11 24.36 -11 21.72 -11 19 C-10.34 19 -9.68 19 -9 19 C-9 17.68 -9 16.36 -9 15 C-8.34 15 -7.68 15 -7 15 C-7 12.69 -7 10.38 -7 8 C-6.401875 7.79375 -5.80375 7.5875 -5.1875 7.375 C-2.18981233 5.49073918 -1.38638224 3.18867916 0 0 Z " fill="#252323" transform="translate(392,97)"/>
<path d="M0 0 C1 2 1 2 0.44140625 3.9453125 C0.15136719 4.66460937 -0.13867188 5.38390625 -0.4375 6.125 C-0.86869141 7.21167969 -0.86869141 7.21167969 -1.30859375 8.3203125 C-1.53675781 8.87460938 -1.76492188 9.42890625 -2 10 C-2.99 9.505 -2.99 9.505 -4 9 C-4 8.34 -4 7.68 -4 7 C-41.95521079 7.43103651 -41.95521079 7.43103651 -79.875 9 C-80.60013794 9.04179382 -81.32527588 9.08358765 -82.0723877 9.12664795 C-89.40909054 9.55780943 -96.70522388 10.1021814 -104 11 C-101.00394428 9.00262952 -99.46217356 8.53633525 -96 7.9375 C-95.13375 7.78152344 -94.2675 7.62554687 -93.375 7.46484375 C-83.75371276 6.1396896 -74.11773538 5.75292064 -64.41796875 5.46484375 C-63.03232638 5.4216563 -61.64669112 5.37824029 -60.26106262 5.33460999 C-57.37258716 5.24436461 -54.48405551 5.1563497 -51.59545898 5.07006836 C-47.93471555 4.96061833 -44.27414217 4.84635994 -40.61359692 4.73049068 C-37.75565123 4.6404406 -34.89764072 4.55260319 -32.03960609 4.46542549 C-30.04697751 4.40438125 -28.05439444 4.34185698 -26.06181335 4.27928162 C-17.70346603 4.03208447 -9.36170462 3.95335852 -1 4 C-0.67 2.68 -0.34 1.36 0 0 Z " fill="#A489BF" transform="translate(377,82)"/>
<path d="M0 0 C0.99 0.33 1.98 0.66 3 1 C3.495 2.485 3.495 2.485 4 4 C0.25 7 0.25 7 -2 7 C-2 7.66 -2 8.32 -2 9 C-3.65071396 10.02611949 -5.31970006 11.02308143 -7 12 C-8.02196992 12.97753644 -9.01979625 13.9805881 -10 15 C-11.0379157 15.83800054 -12.0799515 16.67091164 -13.125 17.5 C-16.19691068 19.74343251 -16.19691068 19.74343251 -17 23 C-18.66666667 24.66666667 -20.33333333 26.33333333 -22 28 C-22.721875 29.093125 -23.44375 30.18625 -24.1875 31.3125 C-24.785625 32.199375 -25.38375 33.08625 -26 34 C-26.66 34 -27.32 34 -28 34 C-28.268125 35.051875 -28.53625 36.10375 -28.8125 37.1875 C-29.87962326 40.61352731 -31.06756771 43.02083355 -33 46 C-33.68096422 47.32608822 -34.35330586 48.65686601 -35 50 C-35 48.68 -35 47.36 -35 46 C-35.66 46 -36.32 46 -37 46 C-36.48480955 42.18759068 -35.73970585 40.6205882 -33 38 C-33 37.01 -33 36.02 -33 35 C-32.34 34.01 -31.68 33.02 -31 32 C-30.01 32 -29.02 32 -28 32 C-28.33 31.01 -28.66 30.02 -29 29 C-27.68 29 -26.36 29 -25 29 C-25.185625 28.21625 -25.37125 27.4325 -25.5625 26.625 C-26 24 -26 24 -25 22 C-23.35 22.33 -21.7 22.66 -20 23 C-19.9071875 22.1646875 -19.9071875 22.1646875 -19.8125 21.3125 C-18.3354534 17.10859814 -15.12079542 14.62556024 -11.3125 12.5 C-8.4948644 10.67234447 -7.94054511 9.16365173 -7 6 C-6.01 6 -5.02 6 -4 6 C-3.67 5.34 -3.34 4.68 -3 4 C-2.34 4 -1.68 4 -1 4 C-0.67 2.68 -0.34 1.36 0 0 Z " fill="#252424" transform="translate(211,169)"/>
<path d="M0 0 C0.66 0 1.32 0 2 0 C2 0.66 2 1.32 2 2 C2.54839539 1.67468292 3.09679077 1.34936584 3.6618042 1.01419067 C6.4281836 -0.18572431 8.40079801 -0.24111777 11.41113281 -0.22705078 C12.49195129 -0.22689972 13.57276978 -0.22674866 14.68634033 -0.22659302 C15.84687927 -0.21627045 17.00741821 -0.20594788 18.203125 -0.1953125 C19.99251495 -0.19106766 19.99251495 -0.19106766 21.8180542 -0.18673706 C25.62880476 -0.17554053 29.43932045 -0.15043653 33.25 -0.125 C35.83332994 -0.11496954 38.41666356 -0.1058438 41 -0.09765625 C47.33341349 -0.07560289 53.66668997 -0.04213035 60 0 C60 0.99 60 1.98 60 3 C39.21 3 18.42 3 -3 3 C-2.01 2.01 -1.02 1.02 0 0 Z " fill="#282828" transform="translate(257,158)"/>
<path d="M0 0 C-3.41713395 4.35541934 -6.8800509 7.76414605 -11.3125 11.0625 C-12.16581909 11.70711182 -12.16581909 11.70711182 -13.03637695 12.36474609 C-24.58115801 21 -24.58115801 21 -28 21 C-28 21.66 -28 22.32 -28 23 C-32.455 24.485 -32.455 24.485 -37 26 C-37 26.66 -37 27.32 -37 28 C-39.90600261 29.25664978 -41.79604584 30 -45 30 C-44.67 28.35 -44.34 26.7 -44 25 C-43.67 25.99 -43.34 26.98 -43 28 C-39.37206002 26.13433512 -39.37206002 26.13433512 -37 23 C-36.01 22.67 -35.02 22.34 -34 22 C-33.67 21.01 -33.34 20.02 -33 19 C-29.30414334 16.78248601 -27.36991627 16 -23 16 C-23 15.34 -23 14.68 -23 14 C-22.236875 13.87625 -21.47375 13.7525 -20.6875 13.625 C-17.79732864 13.11897208 -17.79732864 13.11897208 -15 11 C-14.27034634 8.43717258 -14.27034634 8.43717258 -14 6 C-13.05125 5.7525 -12.1025 5.505 -11.125 5.25 C-7.91161165 4.338822 -7.91161165 4.338822 -6.8125 1.9375 C-6.544375 1.298125 -6.27625 0.65875 -6 0 C-3 -1 -3 -1 0 0 Z " fill="#222121" transform="translate(407,425)"/>
<path d="M0 0 C15.82402235 2.88058659 15.82402235 2.88058659 20.5 4.125 C27.13037902 5.78259476 33.62121638 6.15173041 40.41796875 6.1328125 C41.19707108 6.13376923 41.9761734 6.13472595 42.77888489 6.13571167 C44.41842734 6.13638787 46.05797256 6.13457296 47.69750977 6.13037109 C50.16363788 6.12505147 52.62958085 6.13031644 55.09570312 6.13671875 C64.11722638 6.14012323 73.01460086 5.88255738 82 5 C81.67 5.66 81.34 6.32 81 7 C78.49242092 7.50842029 76.10045248 7.86027212 73.5625 8.125 C72.77190186 8.2077417 71.98130371 8.2904834 71.16674805 8.37573242 C51.91709676 10.16379072 33.04763115 9.08791721 14 6 C14 5.34 14 4.68 14 4 C12.86111328 3.90912109 12.86111328 3.90912109 11.69921875 3.81640625 C10.70535156 3.73261719 9.71148437 3.64882813 8.6875 3.5625 C7.70136719 3.48128906 6.71523437 3.40007812 5.69921875 3.31640625 C3 3 3 3 0 2 C0 1.34 0 0.68 0 0 Z " fill="#4F9AD0" transform="translate(178,411)"/>
<path d="M0 0 C0.33 0 0.66 0 1 0 C3.77021842 16.7202469 2.60305629 32.22759726 1 49 C0.67 49 0.34 49 0 49 C-0.19441368 46.7089095 -0.38033135 44.41709663 -0.5625 42.125 C-0.71912109 40.21074219 -0.71912109 40.21074219 -0.87890625 38.2578125 C-1 35 -1 35 0 33 C-1.485 33.495 -1.485 33.495 -3 34 C-2.67 33.01 -2.34 32.02 -2 31 C-1.34 31 -0.68 31 0 31 C-0.33 30.195625 -0.66 29.39125 -1 28.5625 C-2.20717135 24.26195205 -2.17721353 20.43033819 -2 16 C-1.34 16 -0.68 16 0 16 C0 10.72 0 5.44 0 0 Z " fill="#252424" transform="translate(478,250)"/>
<path d="M0 0 C0.33 0.66 0.66 1.32 1 2 C1.66 2 2.32 2 3 2 C2.11137102 8.53915024 -0.36022371 13.99915644 -3 20 C-3.40605469 20.94746094 -3.81210937 21.89492188 -4.23046875 22.87109375 C-7.02070811 29.23717385 -10.32125307 35.10998442 -14 41 C-15.00274213 42.66501832 -16.00347077 44.33125578 -17 46 C-17 39 -17 39 -16 37 C-15.01 37 -14.02 37 -13 37 C-12.855625 35.88625 -12.71125 34.7725 -12.5625 33.625 C-12 30 -12 30 -11 28 C-10.34 28 -9.68 28 -9 28 C-9 26.35 -9 24.7 -9 23 C-8.36449219 22.7628125 -7.72898437 22.525625 -7.07421875 22.28125 C-4.82645245 21.18389934 -4.82645245 21.18389934 -4.20703125 18.90625 C-4.01173828 17.71515625 -4.01173828 17.71515625 -3.8125 16.5 C-3.04726368 12.09452736 -3.04726368 12.09452736 -2 10 C-2.66 9.67 -3.32 9.34 -4 9 C-3.67 8.01 -3.34 7.02 -3 6 C-2.855625 5.319375 -2.71125 4.63875 -2.5625 3.9375 C-2 2 -2 2 0 0 Z " fill="#242323" transform="translate(467,329)"/>
<path d="M0 0 C0.99 0.33 1.98 0.66 3 1 C2.34 2.98 1.68 4.96 1 7 C0.34 7 -0.32 7 -1 7 C-1.309375 7.78375 -1.61875 8.5675 -1.9375 9.375 C-3 12 -3 12 -4 14 C-4.66 14 -5.32 14 -6 14 C-6.268125 14.928125 -6.53625 15.85625 -6.8125 16.8125 C-7.94573226 19.85433396 -8.64679261 20.94094354 -11 23 C-11.66 23.99 -12.32 24.98 -13 26 C-13.66 26 -14.32 26 -15 26 C-15.66 27.32 -16.32 28.64 -17 30 C-17.99 30 -18.98 30 -20 30 C-19.66695423 26.89157277 -19.10589629 26.08638908 -16.625 24.0625 C-15.325625 23.0415625 -15.325625 23.0415625 -14 22 C-11.88153908 19.00493457 -11 17.69349436 -11 14 C-9.68 14.33 -8.36 14.66 -7 15 C-7.33 14.01 -7.66 13.02 -8 12 C-7.06234128 8.87447092 -5.35924934 7.39318565 -2.875 5.4375 C-1.92625 4.633125 -0.9775 3.82875 0 3 C0 2.01 0 1.02 0 0 Z " fill="#232222" transform="translate(446,374)"/>
<path d="M0 0 C2.54929713 3.03954657 4.78812121 6.17318373 6.9375 9.5 C9.3252019 13.13927083 11.78924846 16.07255006 15 19 C14.34 19.33 13.68 19.66 13 20 C11.2267539 18.73253547 9.45649025 17.46089765 7.6875 16.1875 C6.70136719 15.47980469 5.71523437 14.77210938 4.69921875 14.04296875 C0.60067281 10.9408855 0.60067281 10.9408855 -1 9 C-0.625 7.0625 -0.625 7.0625 0 5 C-0.3062434 3.66018514 -0.63451555 2.32488113 -1 1 C-0.67 0.67 -0.34 0.34 0 0 Z " fill="#26282A" transform="translate(182,299)"/>
<path d="M0 0 C0.99 0.33 1.98 0.66 3 1 C2.979375 2.0725 2.95875 3.145 2.9375 4.25 C2.98663398 7.19803899 3.22283909 9.23404147 4 12 C10.91144538 13.7582374 17.44607892 14.39893235 24.5625 14.625 C25.57119141 14.66367187 26.57988281 14.70234375 27.61914062 14.7421875 C30.0792564 14.83546203 32.53938366 14.92125516 35 15 C35 15.33 35 15.66 35 16 C30.64596135 16.08755672 26.29215123 16.14057969 21.9375 16.1875 C20.70837891 16.21263672 19.47925781 16.23777344 18.21289062 16.26367188 C11.71105945 16.31624733 6.69600798 16.28202492 1 13 C0 12 0 12 -0.09765625 9.27734375 C-0.08605469 8.17519531 -0.07445312 7.07304687 -0.0625 5.9375 C-0.05347656 4.83277344 -0.04445313 3.72804688 -0.03515625 2.58984375 C-0.02355469 1.73519531 -0.01195312 0.88054687 0 0 Z " fill="#000000" transform="translate(310,256)"/>
<path d="M0 0 C3.96 0.99 3.96 0.99 8 2 C8 2.66 8 3.32 8 4 C9.98 4.66 11.96 5.32 14 6 C14.33 7.65 14.66 9.3 15 11 C10.57676318 10.41734728 7.4844136 8.73233789 3.6875 6.4375 C2.61886719 5.79683594 1.55023438 5.15617187 0.44921875 4.49609375 C-0.35902344 4.00238281 -1.16726562 3.50867188 -2 3 C-1.34 2.67 -0.68 2.34 0 2 C0 1.34 0 0.68 0 0 Z " fill="#252222" transform="translate(157,440)"/>
<path d="M0 0 C1 2 1 2 0.44140625 3.9453125 C0.15136719 4.66460937 -0.13867188 5.38390625 -0.4375 6.125 C-0.86869141 7.21167969 -0.86869141 7.21167969 -1.30859375 8.3203125 C-1.53675781 8.87460938 -1.76492188 9.42890625 -2 10 C-2.495 8.02 -2.495 8.02 -3 6 C-17.19 6 -31.38 6 -46 6 C-46 5.67 -46 5.34 -46 5 C-41.84157169 4.85449758 -37.68304681 4.71226076 -33.52441406 4.57275391 C-32.11650752 4.52509873 -30.70862833 4.47662679 -29.30078125 4.42724609 C-19.86163259 4.09687589 -10.44624012 3.93322901 -1 4 C-0.67 2.68 -0.34 1.36 0 0 Z " fill="#6E7FBE" transform="translate(377,82)"/>
<path d="M0 0 C0.71000673 7.57340511 -3.6293198 14.49110031 -7 21 C-7.33 20.34 -7.66 19.68 -8 19 C-8.99 19.33 -9.98 19.66 -11 20 C-11 19.34 -11 18.68 -11 18 C-10.34 18 -9.68 18 -9 18 C-9 17.34 -9 16.68 -9 16 C-8.34 16 -7.68 16 -7 16 C-7.66 14.68 -8.32 13.36 -9 12 C-8.01 11.67 -7.02 11.34 -6 11 C-4.5216774 8.04335481 -4.93967217 5.25770263 -5 2 C-1.125 0 -1.125 0 0 0 Z " fill="#252323" transform="translate(402,76)"/>
<path d="M0 0 C0.23243303 4.76487706 -0.61329846 8.4547005 -2 13 C-2.50340457 15.38923552 -2.9821263 17.78084389 -3.4375 20.1796875 C-3.623125 20.78039062 -3.80875 21.38109375 -4 22 C-4.66 22.33 -5.32 22.66 -6 23 C-6 22.01 -6 21.02 -6 20 C-7.32 19.67 -8.64 19.34 -10 19 C-9.67 17.68 -9.34 16.36 -9 15 C-7.68 15 -6.36 15 -5 15 C-4.96261719 14.16855469 -4.92523438 13.33710938 -4.88671875 12.48046875 C-4.82097656 11.39378906 -4.75523437 10.30710937 -4.6875 9.1875 C-4.62949219 8.10855469 -4.57148438 7.02960938 -4.51171875 5.91796875 C-4.06483878 3.36972951 -3.22530008 0 0 0 Z " fill="#272727" transform="translate(478,300)"/>
<path d="M0 0 C0.99 0 1.98 0 3 0 C4.36623674 2.73247348 4.128426 4.98198902 4 8 C3.67 8.33 3.34 8.66 3 9 C2.60006314 11.68862664 2.24865457 14.36352217 1.9375 17.0625 C1.84662109 17.82111328 1.75574219 18.57972656 1.66210938 19.36132812 C1.4375626 21.2404301 1.21829022 23.12016095 1 25 C0.34 24.67 -0.32 24.34 -1 24 C-1.02699725 21.72923158 -1.04639453 19.45837179 -1.0625 17.1875 C-1.07990234 15.29064453 -1.07990234 15.29064453 -1.09765625 13.35546875 C-1 10 -1 10 0 7 C-0.66 6.67 -1.32 6.34 -2 6 C-1.67 5.34 -1.34 4.68 -1 4 C-0.34 4 0.32 4 1 4 C0.67 2.68 0.34 1.36 0 0 Z " fill="#252323" transform="translate(172,217)"/>
<path d="M0 0 C-2.74365501 1.49783525 -5.10223343 2.34188495 -8.1875 2.81640625 C-8.96867187 2.94080078 -9.74984375 3.06519531 -10.5546875 3.19335938 C-11.76511719 3.37608398 -11.76511719 3.37608398 -13 3.5625 C-14.60438806 3.81238472 -16.20856329 4.06364065 -17.8125 4.31640625 C-18.87404297 4.47798218 -18.87404297 4.47798218 -19.95703125 4.64282227 C-22.00309784 5.0005416 -23.99185139 5.47173282 -26 6 C-26 4.68 -26 3.36 -26 2 C-22.4184073 1.46669495 -18.83454729 0.95053833 -15.25 0.4375 C-14.23421875 0.28603516 -13.2184375 0.13457031 -12.171875 -0.02148438 C-11.1921875 -0.16005859 -10.2125 -0.29863281 -9.203125 -0.44140625 C-7.85202637 -0.63778687 -7.85202637 -0.63778687 -6.47363281 -0.83813477 C-4.04031365 -0.99736203 -2.30785997 -0.73710222 0 0 Z " fill="#6066AE" transform="translate(221,44)"/>
<path d="M0 0 C0.99 0.66 1.98 1.32 3 2 C3 2.99 3 3.98 3 5 C3.99 5.33 4.98 5.66 6 6 C-3.41002278 9.44419134 -3.41002278 9.44419134 -8 9 C-5.89851796 5.01824456 -3.63094642 2.64960955 0 0 Z " fill="#262525" transform="translate(326,461)"/>
<path d="M0 0 C0.66 0 1.32 0 2 0 C2 0.66 2 1.32 2 2 C5.02419525 1.41196203 8.01758453 0.77321882 11 0 C11 0.66 11 1.32 11 2 C11.66 2.33 12.32 2.66 13 3 C13 4.65 13 6.3 13 8 C12.01 8.495 12.01 8.495 11 9 C8.65234375 7.890625 8.65234375 7.890625 5.9375 6.25 C5.03902344 5.71890625 4.14054688 5.1878125 3.21484375 4.640625 C1 3 1 3 0 0 Z " fill="#262424" transform="translate(143,433)"/>
<path d="M0 0 C0 3 0 3 -1.96875 5.26171875 C-2.8040625 6.06222656 -3.639375 6.86273438 -4.5 7.6875 C-5.3353125 8.49574219 -6.170625 9.30398438 -7.03125 10.13671875 C-8.00578125 11.05904297 -8.00578125 11.05904297 -9 12 C-9.99 11.01 -10.98 10.02 -12 9 C-10.75965588 7.67837119 -9.50731374 6.36799547 -8.25 5.0625 C-7.55390625 4.33160156 -6.8578125 3.60070312 -6.140625 2.84765625 C-3.99400275 0.99482354 -2.76467068 0.39228435 0 0 Z " fill="#222222" transform="translate(425,406)"/>
<path d="M0 0 C2.38125464 2.38125464 3.00186241 4.33857567 4.125 7.5 C4.47820312 8.4796875 4.83140625 9.459375 5.1953125 10.46875 C6 13 6 13 6 15 C5.01 15.33 4.02 15.66 3 16 C3 14.68 3 13.36 3 12 C2.34 12 1.68 12 1 12 C1 11.34 1 10.68 1 10 C0.01 9.34 -0.98 8.68 -2 8 C-2.6875 5.875 -2.6875 5.875 -3 4 C-2.01 3.67 -1.02 3.34 0 3 C0 2.01 0 1.02 0 0 Z " fill="#252222" transform="translate(176,284)"/>
<path d="M0 0 C0.66 0 1.32 0 2 0 C2.66 3.96 3.32 7.92 4 12 C4.66 12 5.32 12 6 12 C6.33 13.98 6.66 15.96 7 18 C6.7525 17.360625 6.505 16.72125 6.25 16.0625 C5.18437567 13.81258459 5.18437567 13.81258459 2.875 13.25 C2.25625 13.1675 1.6375 13.085 1 13 C-0.10228696 8.59085217 -0.07654536 4.51617599 0 0 Z " fill="#60B8C4" transform="translate(51,287)"/>
<path d="M0 0 C0.33 0.99 0.66 1.98 1 3 C1.99 2.67 2.98 2.34 4 2 C4.33 2.99 4.66 3.98 5 5 C3.73160474 5.50615298 2.46016898 6.00469099 1.1875 6.5 C0.12595703 6.91765625 0.12595703 6.91765625 -0.95703125 7.34375 C-3 8 -3 8 -6 8 C-5.8125 5.6875 -5.8125 5.6875 -5 3 C-2.4375 1.1875 -2.4375 1.1875 0 0 Z " fill="#252424" transform="translate(357,452)"/>
<path d="M0 0 C-0.33 0.66 -0.66 1.32 -1 2 C-2.0725 2.268125 -3.145 2.53625 -4.25 2.8125 C-9.20165423 4.38052384 -11.76296112 6.82045531 -14.3125 11.3125 C-14.539375 11.869375 -14.76625 12.42625 -15 13 C-16 11 -16 11 -15.3125 8.6875 C-13.85808939 5.70942113 -12.23828355 3.44176387 -10 1 C-6.52674819 -0.1577506 -3.63932552 -0.06866652 0 0 Z " fill="#57A7CC" transform="translate(425,197)"/>
<path d="M0 0 C0.66 0 1.32 0 2 0 C2.66 1.98 3.32 3.96 4 6 C-0.17587745 7.39195915 -2.13474776 5.82323219 -6 4 C-5.67 3.01 -5.34 2.02 -5 1 C-4.01 1.33 -3.02 1.66 -2 2 C-1.34 1.34 -0.68 0.68 0 0 Z " fill="#262525" transform="translate(187,452)"/>
<path d="M0 0 C2.64 0.99 5.28 1.98 8 3 C7.01 3.495 7.01 3.495 6 4 C6 4.99 6 5.98 6 7 C2.31245243 6.50168276 0.39509338 5.89932357 -2 3 C-1.34 2.01 -0.68 1.02 0 0 Z " fill="#272424" transform="translate(174,448)"/>
<path d="M0 0 C3.79555331 2.53036888 4.4455386 4.78074764 6 9 C6 9.99 6 10.98 6 12 C4.0625 11.625 4.0625 11.625 2 11 C0.66666667 8.33333333 -0.66666667 5.66666667 -2 3 C-1.34 2.01 -0.68 1.02 0 0 Z " fill="#242222" transform="translate(472,237)"/>
<path d="M0 0 C1.32 0.33 2.64 0.66 4 1 C2.31326082 5.49797113 0.18326108 9.72886302 -2 14 C-3.21065165 10.36804504 -2.62784815 8.93468371 -1.5625 5.3125 C-1.27503906 4.31863281 -0.98757812 3.32476562 -0.69140625 2.30078125 C-0.46324219 1.54152344 -0.23507813 0.78226563 0 0 Z " fill="#68579C" transform="translate(163,186)"/>
<path d="M0 0 C0.66 0 1.32 0 2 0 C1.67 1.98 1.34 3.96 1 6 C0.34 6 -0.32 6 -1 6 C-1.12375 6.969375 -1.2475 7.93875 -1.375 8.9375 C-1.58125 9.948125 -1.7875 10.95875 -2 12 C-2.99 12.495 -2.99 12.495 -4 13 C-4.125 9.625 -4.125 9.625 -4 6 C-3.34 5.34 -2.68 4.68 -2 4 C-1.30251417 2.68252676 -0.63040043 1.35085807 0 0 Z " fill="#202020" transform="translate(392,97)"/>
<path d="M0 0 C0.33 0 0.66 0 1 0 C1 3.63 1 7.26 1 11 C-0.32 10.01 -1.64 9.02 -3 8 C-2.25 2.25 -2.25 2.25 0 0 Z M-5 8 C-4.01 8.495 -4.01 8.495 -3 9 C-3.99 9.495 -3.99 9.495 -5 10 C-5 9.34 -5 8.68 -5 8 Z " fill="#242424" transform="translate(402,64)"/>
<path d="M0 0 C1.98 0.66 3.96 1.32 6 2 C6 2.66 6 3.32 6 4 C8.475 4.99 8.475 4.99 11 6 C10.67 6.66 10.34 7.32 10 8 C8.68 8 7.36 8 6 8 C4.296875 6.25 4.296875 6.25 2.75 4 C2.22921875 3.2575 1.7084375 2.515 1.171875 1.75 C0.78515625 1.1725 0.3984375 0.595 0 0 Z " fill="#272B2C" transform="translate(446,211)"/>
<path d="M0 0 C0.99 0 1.98 0 3 0 C3.36923077 5.41538462 3.36923077 5.41538462 1.5 8.375 C1.005 8.91125 0.51 9.4475 0 10 C0 8.35 0 6.7 0 5 C-0.66 5 -1.32 5 -2 5 C-1.125 1.125 -1.125 1.125 0 0 Z " fill="#2B2929" transform="translate(461,340)"/>
<path d="M0 0 C0.42589023 5.53657294 -1.094753 9.89665983 -3 15 C-3.33 15 -3.66 15 -4 15 C-4.08107583 13.06318839 -4.13922475 11.1254066 -4.1875 9.1875 C-4.22230469 8.10855469 -4.25710938 7.02960938 -4.29296875 5.91796875 C-4 3 -4 3 -2.55078125 1.11328125 C-1 0 -1 0 0 0 Z " fill="#212020" transform="translate(478,300)"/>
<path d="M0 0 C3.53372712 1.96318174 6.24479785 4.04070881 9 7 C8.67 7.66 8.34 8.32 8 9 C3.7257442 7.4169423 1.73468206 4.49431596 -1 1 C-0.67 0.67 -0.34 0.34 0 0 Z " fill="#222222" transform="translate(457,219)"/>
<path d="M0 0 C1.65 0.33 3.3 0.66 5 1 C0.39033958 3.48212484 -3.72927515 5 -9 5 C-8.34 3.68 -7.68 2.36 -7 1 C-4.69 1.33 -2.38 1.66 0 2 C0 1.34 0 0.68 0 0 Z " fill="#1F1E1E" transform="translate(239,161)"/>
<path d="M0 0 C3.73487777 0.4979837 5.81237635 0.87491756 9 3 C8.67 3.66 8.34 4.32 8 5 C7.01 4.34 6.02 3.68 5 3 C4.34 4.32 3.68 5.64 3 7 C0 3.375 0 3.375 0 0 Z " fill="#242323" transform="translate(390,52)"/>
<path d="M0 0 C2.04116107 1.51197117 2.56378295 3.0025659 3.6875 5.25 C-0.6302458 4.74202991 -4.34552114 4.05317221 -8.3125 2.25 C-8.3125 1.92 -8.3125 1.59 -8.3125 1.25 C-2.93226549 -0.95100503 -2.93226549 -0.95100503 0 0 Z " fill="#222020" transform="translate(199.3125,457.75)"/>
<path d="M0 0 C0.33 0 0.66 0 1 0 C1.33 2.64 1.66 5.28 2 8 C2.99 8.33 3.98 8.66 5 9 C5 9.66 5 10.32 5 11 C7.97 11.495 7.97 11.495 11 12 C11 12.33 11 12.66 11 13 C4.505145 12.38727783 4.505145 12.38727783 2.125 10.5625 C-0.39467678 7.06294892 -0.07857544 4.24307362 0 0 Z " fill="#1E1E1E" transform="translate(312,257)"/>
<path d="M0 0 C0.33 0.99 0.66 1.98 1 3 C0.01 3.495 0.01 3.495 -1 4 C-0.67 4.66 -0.34 5.32 0 6 C-1.65 6 -3.3 6 -5 6 C-5 4.68 -5 3.36 -5 2 C-2 0 -2 0 0 0 Z " fill="#292828" transform="translate(379,442)"/>
<path d="M0 0 C1.13643966 3.40931897 0.86747764 4.00335456 -0.4375 7.1875 C-0.72496094 7.90292969 -1.01242187 8.61835938 -1.30859375 9.35546875 C-1.53675781 9.89816406 -1.76492188 10.44085938 -2 11 C-2.33 10.34 -2.66 9.68 -3 9 C-3.66 9 -4.32 9 -5 9 C-3.125 4.25 -3.125 4.25 -2 2 C-1.34 2 -0.68 2 0 2 C0 1.34 0 0.68 0 0 Z " fill="#2B2828" transform="translate(372,140)"/>
<path d="M0 0 C0.99 0.33 1.98 0.66 3 1 C-0.11016455 4.28788824 -3.01618925 6.83735988 -7 9 C-7 8.01 -7 7.02 -7 6 C-5.03277992 4.61876037 -3.03131672 3.28511874 -1 2 C-0.67 1.34 -0.34 0.68 0 0 Z " fill="#1F1F1F" transform="translate(203,178)"/>
<path d="M0 0 C0.66 0.33 1.32 0.66 2 1 C1.67 1.66 1.34 2.32 1 3 C1.99 3.33 2.98 3.66 4 4 C4 4.33 4 4.66 4 5 C1.36 5 -1.28 5 -4 5 C-3 2 -3 2 0 0 Z " fill="#252222" transform="translate(249,157)"/>
<path d="M0 0 C1.98 0 3.96 0 6 0 C6.33 1.98 6.66 3.96 7 6 C4.50638429 4.79618552 2.31856917 3.54571278 0 2 C0 1.34 0 0.68 0 0 Z " fill="#212121" transform="translate(129,422)"/>
<path d="M0 0 C5.57142857 5.14285714 5.57142857 5.14285714 6 9 C3.56070254 7.07423885 1.19909405 5.19909405 -1 3 C-0.67 2.01 -0.34 1.02 0 0 Z " fill="#202020" transform="translate(466,228)"/>
<path d="M0 0 C1 2 1 2 0.44140625 3.9453125 C0.15136719 4.66460937 -0.13867188 5.38390625 -0.4375 6.125 C-0.72496094 6.84945312 -1.01242187 7.57390625 -1.30859375 8.3203125 C-1.53675781 8.87460938 -1.76492188 9.42890625 -2 10 C-2.33 8.68 -2.66 7.36 -3 6 C-3.99 6 -4.98 6 -6 6 C-6 5.34 -6 4.68 -6 4 C-4.35 4 -2.7 4 -1 4 C-0.67 2.68 -0.34 1.36 0 0 Z " fill="#6F6DA2" transform="translate(377,82)"/>
<path d="M0 0 C2.64 0 5.28 0 8 0 C8 0.66 8 1.32 8 2 C5.36 2.66 2.72 3.32 0 4 C0 2.68 0 1.36 0 0 Z " fill="#6D54A2" transform="translate(195,46)"/>
<path d="M0 0 C0.78375 0.04125 1.5675 0.0825 2.375 0.125 C1.09437515 1.8324998 -0.24267557 3.49873596 -1.625 5.125 C-2.285 5.125 -2.945 5.125 -3.625 5.125 C-3.955 4.135 -4.285 3.145 -4.625 2.125 C-2.625 0.125 -2.625 0.125 0 0 Z " fill="#222222" transform="translate(412.625,417.875)"/>
<path d="M0 0 C2 2 2 2 2.125 5.625 C2.08375 6.73875 2.0425 7.8525 2 9 C1.01 8.67 0.02 8.34 -1 8 C-1.04241723 5.66705225 -1.04092937 3.33297433 -1 1 C-0.67 0.67 -0.34 0.34 0 0 Z " fill="#222222" transform="translate(172,267)"/>
<path d="M0 0 C0.66 0.99 1.32 1.98 2 3 C-0.64738916 4.4606285 -1.89448334 5 -5 5 C-4.1875 3.0625 -4.1875 3.0625 -3 1 C-2.01 0.67 -1.02 0.34 0 0 Z " fill="#232020" transform="translate(348,458)"/>
<path d="M0 0 C0.99 0.33 1.98 0.66 3 1 C3.6875 3.0625 3.6875 3.0625 4 5 C3.01 5.495 3.01 5.495 2 6 C1.01 5.34 0.02 4.68 -1 4 C-0.67 2.68 -0.34 1.36 0 0 Z " fill="#2B2929" transform="translate(162,441)"/>
<path d="M0 0 C0.33 0.99 0.66 1.98 1 3 C-1.375 4.5625 -1.375 4.5625 -4 6 C-4.66 5.67 -5.32 5.34 -6 5 C-4.61551018 2.23102035 -3.26099808 0 0 0 Z " fill="#2B2727" transform="translate(391,434)"/>
<path d="M0 0 C0.33 0.66 0.66 1.32 1 2 C1.66 2 2.32 2 3 2 C3.33 1.34 3.66 0.68 4 0 C4 0.66 4 1.32 4 2 C4.66 2.33 5.32 2.66 6 3 C3.35261084 4.4606285 2.10551666 5 -1 5 C-0.67 3.35 -0.34 1.7 0 0 Z " fill="#212121" transform="translate(216,167)"/>
<path d="M0 0 C0.66 0.33 1.32 0.66 2 1 C1.67 3.31 1.34 5.62 1 8 C0.34 8 -0.32 8 -1 8 C-1.04241723 5.66705225 -1.04092937 3.33297433 -1 1 C-0.67 0.67 -0.34 0.34 0 0 Z " fill="#232121" transform="translate(174,277)"/>
<path d="M0 0 C0.33 1.32 0.66 2.64 1 4 C-0.65 4 -2.3 4 -4 4 C-4.33 3.01 -4.66 2.02 -5 1 C-2 0 -2 0 0 0 Z " fill="#2B2828" transform="translate(236,159)"/>
<path d="M0 0 C3.875 1.75 3.875 1.75 5 4 C2.69 3.67 0.38 3.34 -2 3 C-1.34 2.01 -0.68 1.02 0 0 Z " fill="#222222" transform="translate(224,466)"/>
<path d="M0 0 C1.5 1.375 1.5 1.375 3 3 C3 3.66 3 4.32 3 5 C0.69 4.67 -1.62 4.34 -4 4 C-2.66666667 2.66666667 -1.33333333 1.33333333 0 0 Z " fill="#242222" transform="translate(214,462)"/>
<path d="M0 0 C0.66 0 1.32 0 2 0 C2.33 1.98 2.66 3.96 3 6 C2.34 6 1.68 6 1 6 C0.67 6.66 0.34 7.32 0 8 C0 5.36 0 2.72 0 0 Z " fill="#5CA8BC" transform="translate(51,287)"/>
<path d="M0 0 C0.33 0 0.66 0 1 0 C1.26218749 3.14624993 1.24754367 4.61837017 -0.5 7.3125 C-1.2425 8.1478125 -1.2425 8.1478125 -2 9 C-2.125 5.625 -2.125 5.625 -2 2 C-1.34 1.34 -0.68 0.68 0 0 Z " fill="#1D1C1C" transform="translate(401,76)"/>
</svg>
